<svg width="535" height="371" viewBox="0 0 535 371" fill="none" xmlns="http://www.w3.org/2000/svg">
<g clip-path="url(#clip0_1454_18075)">
<rect x="0.25" y="0.25" width="534.5" height="370.5" rx="7.75" fill="white" stroke="#E5E7E9" stroke-width="0.5"/>
<path d="M15.5732 121V120.361L17.9737 117.733C18.2554 117.425 18.4875 117.158 18.6697 116.93C18.852 116.701 18.987 116.485 19.0746 116.284C19.1645 116.08 19.2095 115.867 19.2095 115.645C19.2095 115.389 19.148 115.168 19.0249 114.981C18.9041 114.794 18.7384 114.649 18.5277 114.548C18.317 114.446 18.0803 114.395 17.8175 114.395C17.5381 114.395 17.2943 114.453 17.0859 114.569C16.88 114.683 16.7202 114.842 16.6065 115.048C16.4953 115.254 16.4396 115.496 16.4396 115.773H15.6016C15.6016 115.347 15.6998 114.973 15.8963 114.651C16.0928 114.329 16.3603 114.078 16.6989 113.898C17.0398 113.718 17.4221 113.628 17.8459 113.628C18.272 113.628 18.6496 113.718 18.9787 113.898C19.3078 114.078 19.5658 114.32 19.7528 114.626C19.9399 114.931 20.0334 115.271 20.0334 115.645C20.0334 115.912 19.9848 116.174 19.8878 116.43C19.7931 116.683 19.6274 116.966 19.3906 117.278C19.1562 117.589 18.8307 117.967 18.4141 118.415L16.7805 120.162V120.219H20.1612V121H15.5732ZM24 121.099C23.465 121.099 23.0092 120.954 22.6328 120.663C22.2564 120.369 21.9688 119.944 21.7699 119.388C21.571 118.829 21.4716 118.154 21.4716 117.364C21.4716 116.578 21.571 115.906 21.7699 115.35C21.9711 114.791 22.2599 114.365 22.6364 114.072C23.0152 113.776 23.4697 113.628 24 113.628C24.5303 113.628 24.9837 113.776 25.3601 114.072C25.7389 114.365 26.0277 114.791 26.2266 115.35C26.4278 115.906 26.5284 116.578 26.5284 117.364C26.5284 118.154 26.429 118.829 26.2301 119.388C26.0312 119.944 25.7436 120.369 25.3672 120.663C24.9908 120.954 24.535 121.099 24 121.099ZM24 120.318C24.5303 120.318 24.9422 120.062 25.2358 119.551C25.5294 119.04 25.6761 118.311 25.6761 117.364C25.6761 116.734 25.6087 116.198 25.4737 115.755C25.3411 115.312 25.1494 114.975 24.8984 114.743C24.6499 114.511 24.3504 114.395 24 114.395C23.4744 114.395 23.0637 114.654 22.7678 115.173C22.4718 115.689 22.3239 116.419 22.3239 117.364C22.3239 117.993 22.3902 118.528 22.5227 118.969C22.6553 119.409 22.8459 119.744 23.0945 119.974C23.3454 120.203 23.6473 120.318 24 120.318ZM30.25 121.099C29.715 121.099 29.2592 120.954 28.8828 120.663C28.5064 120.369 28.2188 119.944 28.0199 119.388C27.821 118.829 27.7216 118.154 27.7216 117.364C27.7216 116.578 27.821 115.906 28.0199 115.35C28.2211 114.791 28.5099 114.365 28.8864 114.072C29.2652 113.776 29.7197 113.628 30.25 113.628C30.7803 113.628 31.2337 113.776 31.6101 114.072C31.9889 114.365 32.2777 114.791 32.4766 115.35C32.6778 115.906 32.7784 116.578 32.7784 117.364C32.7784 118.154 32.679 118.829 32.4801 119.388C32.2812 119.944 31.9936 120.369 31.6172 120.663C31.2408 120.954 30.785 121.099 30.25 121.099ZM30.25 120.318C30.7803 120.318 31.1922 120.062 31.4858 119.551C31.7794 119.04 31.9261 118.311 31.9261 117.364C31.9261 116.734 31.8587 116.198 31.7237 115.755C31.5911 115.312 31.3994 114.975 31.1484 114.743C30.8999 114.511 30.6004 114.395 30.25 114.395C29.7244 114.395 29.3137 114.654 29.0178 115.173C28.7218 115.689 28.5739 116.419 28.5739 117.364C28.5739 117.993 28.6402 118.528 28.7727 118.969C28.9053 119.409 29.0959 119.744 29.3445 119.974C29.5954 120.203 29.8973 120.318 30.25 120.318Z" fill="#9C9C9C"/>
<path d="M19.7022 153.727V161H18.8216V154.651H18.7789L17.0034 155.83V154.935L18.8216 153.727H19.7022ZM24.0666 161.099C23.6499 161.099 23.2747 161.017 22.9409 160.851C22.6071 160.685 22.3395 160.458 22.1383 160.169C21.9371 159.88 21.827 159.551 21.8081 159.182H22.6603C22.6935 159.511 22.8426 159.783 23.1078 159.999C23.3753 160.212 23.6949 160.318 24.0666 160.318C24.3649 160.318 24.63 160.248 24.862 160.109C25.0964 159.969 25.2799 159.777 25.4125 159.533C25.5474 159.287 25.6149 159.009 25.6149 158.699C25.6149 158.382 25.545 158.099 25.4054 157.85C25.2681 157.599 25.0787 157.402 24.8372 157.257C24.5957 157.113 24.3199 157.039 24.0098 157.037C23.7872 157.035 23.5588 157.069 23.3244 157.14C23.09 157.209 22.8971 157.297 22.7456 157.406L21.9217 157.307L22.362 153.727H26.1404V154.509H23.1007L22.845 156.653H22.8876C23.0368 156.535 23.2238 156.437 23.4487 156.359C23.6736 156.281 23.908 156.241 24.1518 156.241C24.5969 156.241 24.9934 156.348 25.3414 156.561C25.6918 156.772 25.9664 157.061 26.1653 157.428C26.3665 157.795 26.4672 158.214 26.4672 158.685C26.4672 159.149 26.363 159.563 26.1547 159.928C25.9487 160.29 25.6646 160.576 25.3024 160.787C24.9402 160.995 24.5282 161.099 24.0666 161.099ZM30.25 161.099C29.715 161.099 29.2592 160.954 28.8828 160.663C28.5064 160.369 28.2188 159.944 28.0199 159.388C27.821 158.829 27.7216 158.154 27.7216 157.364C27.7216 156.578 27.821 155.906 28.0199 155.35C28.2211 154.791 28.5099 154.365 28.8864 154.072C29.2652 153.776 29.7197 153.628 30.25 153.628C30.7803 153.628 31.2337 153.776 31.6101 154.072C31.9889 154.365 32.2777 154.791 32.4766 155.35C32.6778 155.906 32.7784 156.578 32.7784 157.364C32.7784 158.154 32.679 158.829 32.4801 159.388C32.2812 159.944 31.9936 160.369 31.6172 160.663C31.2408 160.954 30.785 161.099 30.25 161.099ZM30.25 160.318C30.7803 160.318 31.1922 160.062 31.4858 159.551C31.7794 159.04 31.9261 158.311 31.9261 157.364C31.9261 156.734 31.8587 156.198 31.7237 155.755C31.5911 155.312 31.3994 154.975 31.1484 154.743C30.8999 154.511 30.6004 154.395 30.25 154.395C29.7244 154.395 29.3137 154.654 29.0178 155.173C28.7218 155.689 28.5739 156.419 28.5739 157.364C28.5739 157.993 28.6402 158.528 28.7727 158.969C28.9053 159.409 29.0959 159.744 29.3445 159.974C29.5954 160.203 29.8973 160.318 30.25 160.318Z" fill="#9C9C9C"/>
<path d="M19.5362 193.727V201H18.6555V194.651H18.6129L16.8374 195.83V194.935L18.6555 193.727H19.5362ZM24 201.099C23.465 201.099 23.0092 200.954 22.6328 200.663C22.2564 200.369 21.9688 199.944 21.7699 199.388C21.571 198.829 21.4716 198.154 21.4716 197.364C21.4716 196.578 21.571 195.906 21.7699 195.35C21.9711 194.791 22.2599 194.365 22.6364 194.072C23.0152 193.776 23.4697 193.628 24 193.628C24.5303 193.628 24.9837 193.776 25.3601 194.072C25.7389 194.365 26.0277 194.791 26.2266 195.35C26.4278 195.906 26.5284 196.578 26.5284 197.364C26.5284 198.154 26.429 198.829 26.2301 199.388C26.0312 199.944 25.7436 200.369 25.3672 200.663C24.9908 200.954 24.535 201.099 24 201.099ZM24 200.318C24.5303 200.318 24.9422 200.062 25.2358 199.551C25.5294 199.04 25.6761 198.311 25.6761 197.364C25.6761 196.734 25.6087 196.198 25.4737 195.755C25.3411 195.312 25.1494 194.975 24.8984 194.743C24.6499 194.511 24.3504 194.395 24 194.395C23.4744 194.395 23.0637 194.654 22.7678 195.173C22.4718 195.689 22.3239 196.419 22.3239 197.364C22.3239 197.993 22.3902 198.528 22.5227 198.969C22.6553 199.409 22.8459 199.744 23.0945 199.974C23.3454 200.203 23.6473 200.318 24 200.318ZM30.25 201.099C29.715 201.099 29.2592 200.954 28.8828 200.663C28.5064 200.369 28.2188 199.944 28.0199 199.388C27.821 198.829 27.7216 198.154 27.7216 197.364C27.7216 196.578 27.821 195.906 28.0199 195.35C28.2211 194.791 28.5099 194.365 28.8864 194.072C29.2652 193.776 29.7197 193.628 30.25 193.628C30.7803 193.628 31.2337 193.776 31.6101 194.072C31.9889 194.365 32.2777 194.791 32.4766 195.35C32.6778 195.906 32.7784 196.578 32.7784 197.364C32.7784 198.154 32.679 198.829 32.4801 199.388C32.2812 199.944 31.9936 200.369 31.6172 200.663C31.2408 200.954 30.785 201.099 30.25 201.099ZM30.25 200.318C30.7803 200.318 31.1922 200.062 31.4858 199.551C31.7794 199.04 31.9261 198.311 31.9261 197.364C31.9261 196.734 31.8587 196.198 31.7237 195.755C31.5911 195.312 31.3994 194.975 31.1484 194.743C30.8999 194.511 30.6004 194.395 30.25 194.395C29.7244 194.395 29.3137 194.654 29.0178 195.173C28.7218 195.689 28.5739 196.419 28.5739 197.364C28.5739 197.993 28.6402 198.528 28.7727 198.969C28.9053 199.409 29.0959 199.744 29.3445 199.974C29.5954 200.203 29.8973 200.318 30.25 200.318Z" fill="#9C9C9C"/>
<path d="M24.0666 241.099C23.6499 241.099 23.2747 241.017 22.9409 240.851C22.6071 240.685 22.3395 240.458 22.1383 240.169C21.9371 239.88 21.827 239.551 21.8081 239.182H22.6603C22.6935 239.511 22.8426 239.783 23.1078 239.999C23.3753 240.212 23.6949 240.318 24.0666 240.318C24.3649 240.318 24.63 240.248 24.862 240.109C25.0964 239.969 25.2799 239.777 25.4125 239.533C25.5474 239.287 25.6149 239.009 25.6149 238.699C25.6149 238.382 25.545 238.099 25.4054 237.85C25.2681 237.599 25.0787 237.402 24.8372 237.257C24.5957 237.113 24.3199 237.039 24.0098 237.037C23.7872 237.035 23.5588 237.069 23.3244 237.14C23.09 237.209 22.8971 237.297 22.7456 237.406L21.9217 237.307L22.362 233.727H26.1404V234.509H23.1007L22.845 236.653H22.8876C23.0368 236.535 23.2238 236.437 23.4487 236.359C23.6736 236.281 23.908 236.241 24.1518 236.241C24.5969 236.241 24.9934 236.348 25.3414 236.561C25.6918 236.772 25.9664 237.061 26.1653 237.428C26.3665 237.795 26.4672 238.214 26.4672 238.685C26.4672 239.149 26.363 239.563 26.1547 239.928C25.9487 240.29 25.6646 240.576 25.3024 240.787C24.9402 240.995 24.5282 241.099 24.0666 241.099ZM30.25 241.099C29.715 241.099 29.2592 240.954 28.8828 240.663C28.5064 240.369 28.2188 239.944 28.0199 239.388C27.821 238.829 27.7216 238.154 27.7216 237.364C27.7216 236.578 27.821 235.906 28.0199 235.35C28.2211 234.791 28.5099 234.365 28.8864 234.072C29.2652 233.776 29.7197 233.628 30.25 233.628C30.7803 233.628 31.2337 233.776 31.6101 234.072C31.9889 234.365 32.2777 234.791 32.4766 235.35C32.6778 235.906 32.7784 236.578 32.7784 237.364C32.7784 238.154 32.679 238.829 32.4801 239.388C32.2812 239.944 31.9936 240.369 31.6172 240.663C31.2408 240.954 30.785 241.099 30.25 241.099ZM30.25 240.318C30.7803 240.318 31.1922 240.062 31.4858 239.551C31.7794 239.04 31.9261 238.311 31.9261 237.364C31.9261 236.734 31.8587 236.198 31.7237 235.755C31.5911 235.312 31.3994 234.975 31.1484 234.743C30.8999 234.511 30.6004 234.395 30.25 234.395C29.7244 234.395 29.3137 234.654 29.0178 235.173C28.7218 235.689 28.5739 236.419 28.5739 237.364C28.5739 237.993 28.6402 238.528 28.7727 238.969C28.9053 239.409 29.0959 239.744 29.3445 239.974C29.5954 240.203 29.8973 240.318 30.25 240.318Z" fill="#9C9C9C"/>
<path d="M30.25 281.099C29.715 281.099 29.2592 280.954 28.8828 280.663C28.5064 280.369 28.2188 279.944 28.0199 279.388C27.821 278.829 27.7216 278.154 27.7216 277.364C27.7216 276.578 27.821 275.906 28.0199 275.35C28.2211 274.791 28.5099 274.365 28.8864 274.072C29.2652 273.776 29.7197 273.628 30.25 273.628C30.7803 273.628 31.2337 273.776 31.6101 274.072C31.9889 274.365 32.2777 274.791 32.4766 275.35C32.6778 275.906 32.7784 276.578 32.7784 277.364C32.7784 278.154 32.679 278.829 32.4801 279.388C32.2812 279.944 31.9936 280.369 31.6172 280.663C31.2408 280.954 30.785 281.099 30.25 281.099ZM30.25 280.318C30.7803 280.318 31.1922 280.062 31.4858 279.551C31.7794 279.04 31.9261 278.311 31.9261 277.364C31.9261 276.734 31.8587 276.198 31.7237 275.755C31.5911 275.312 31.3994 274.975 31.1484 274.743C30.8999 274.511 30.6004 274.395 30.25 274.395C29.7244 274.395 29.3137 274.654 29.0178 275.173C28.7218 275.689 28.5739 276.419 28.5739 277.364C28.5739 277.993 28.6402 278.528 28.7727 278.969C28.9053 279.409 29.0959 279.744 29.3445 279.974C29.5954 280.203 29.8973 280.318 30.25 280.318Z" fill="#9C9C9C"/>
<path d="M14.5227 40V28.3636H16.6307V38.233H21.7557V40H14.5227ZM23.4943 40V31.2727H25.5511V40H23.4943ZM24.5284 30.0341C24.2027 30.0341 23.9223 29.9261 23.6875 29.7102C23.4527 29.4905 23.3352 29.2273 23.3352 28.9205C23.3352 28.6098 23.4527 28.3466 23.6875 28.1307C23.9223 27.911 24.2027 27.8011 24.5284 27.8011C24.858 27.8011 25.1383 27.911 25.3693 28.1307C25.6042 28.3466 25.7216 28.6098 25.7216 28.9205C25.7216 29.2273 25.6042 29.4905 25.3693 29.7102C25.1383 29.9261 24.858 30.0341 24.5284 30.0341ZM29.723 34.8864V40H27.6662V31.2727H29.6321V32.7557H29.7344C29.9351 32.267 30.2552 31.8788 30.6946 31.5909C31.1378 31.303 31.6851 31.1591 32.3366 31.1591C32.9389 31.1591 33.4635 31.2879 33.9105 31.5455C34.3613 31.803 34.7098 32.1761 34.956 32.6648C35.206 33.1534 35.3291 33.7462 35.3253 34.4432V40H33.2685V34.7614C33.2685 34.178 33.117 33.7216 32.8139 33.392C32.5147 33.0625 32.0999 32.8977 31.5696 32.8977C31.2098 32.8977 30.8897 32.9773 30.6094 33.1364C30.3329 33.2917 30.1151 33.517 29.956 33.8125C29.8007 34.108 29.723 34.4659 29.723 34.8864ZM41.2798 40.1705C40.4048 40.1705 39.6491 39.9886 39.0128 39.625C38.3802 39.2576 37.8935 38.7386 37.5526 38.0682C37.2116 37.3939 37.0412 36.6004 37.0412 35.6875C37.0412 34.7898 37.2116 34.0019 37.5526 33.3239C37.8973 32.642 38.3783 32.1117 38.9957 31.733C39.6132 31.3504 40.3385 31.1591 41.1719 31.1591C41.7098 31.1591 42.2173 31.2462 42.6946 31.4205C43.1757 31.5909 43.5999 31.8561 43.9673 32.2159C44.3385 32.5758 44.6302 33.0341 44.8423 33.5909C45.0545 34.1439 45.1605 34.803 45.1605 35.5682V36.1989H38.0071V34.8125H43.1889C43.1851 34.4186 43.0999 34.0682 42.9332 33.7614C42.7666 33.4508 42.5336 33.2064 42.2344 33.0284C41.9389 32.8504 41.5942 32.7614 41.2003 32.7614C40.7798 32.7614 40.4105 32.8636 40.0923 33.0682C39.7741 33.2689 39.526 33.5341 39.348 33.8636C39.1738 34.1894 39.0848 34.5473 39.081 34.9375V36.1477C39.081 36.6553 39.1738 37.0909 39.3594 37.4545C39.545 37.8144 39.8045 38.0909 40.1378 38.2841C40.4711 38.4735 40.8613 38.5682 41.3082 38.5682C41.6075 38.5682 41.8783 38.5265 42.1207 38.4432C42.3632 38.3561 42.5734 38.2292 42.7514 38.0625C42.9295 37.8958 43.0639 37.6894 43.1548 37.4432L45.0753 37.6591C44.9541 38.1667 44.723 38.6098 44.3821 38.9886C44.045 39.3636 43.6132 39.6553 43.0866 39.8636C42.5601 40.0682 41.9579 40.1705 41.2798 40.1705ZM60.9205 32.2898H58.7955C58.7348 31.9413 58.6231 31.6326 58.4602 31.3636C58.2973 31.0909 58.0947 30.8598 57.8523 30.6705C57.6098 30.4811 57.3333 30.339 57.0227 30.2443C56.7159 30.1458 56.3845 30.0966 56.0284 30.0966C55.3958 30.0966 54.8352 30.2557 54.3466 30.5739C53.858 30.8883 53.4754 31.3504 53.1989 31.9602C52.9223 32.5663 52.7841 33.3068 52.7841 34.1818C52.7841 35.072 52.9223 35.822 53.1989 36.4318C53.4792 37.0379 53.8617 37.4962 54.3466 37.8068C54.8352 38.1136 55.3939 38.267 56.0227 38.267C56.3712 38.267 56.697 38.2216 57 38.1307C57.3068 38.036 57.5814 37.8977 57.8239 37.7159C58.0701 37.5341 58.2765 37.3106 58.4432 37.0455C58.6136 36.7803 58.7311 36.4773 58.7955 36.1364L60.9205 36.1477C60.8409 36.7008 60.6686 37.2197 60.4034 37.7045C60.142 38.1894 59.7992 38.6174 59.375 38.9886C58.9508 39.3561 58.4545 39.6439 57.8864 39.8523C57.3182 40.0568 56.6875 40.1591 55.9943 40.1591C54.9716 40.1591 54.0587 39.9223 53.2557 39.4489C52.4527 38.9754 51.8201 38.2917 51.358 37.3977C50.8958 36.5038 50.6648 35.4318 50.6648 34.1818C50.6648 32.928 50.8977 31.8561 51.3636 30.9659C51.8295 30.072 52.464 29.3883 53.267 28.9148C54.0701 28.4413 54.9792 28.2045 55.9943 28.2045C56.642 28.2045 57.2443 28.2955 57.8011 28.4773C58.358 28.6591 58.8542 28.9261 59.2898 29.2784C59.7254 29.6269 60.0833 30.0549 60.3636 30.5625C60.6477 31.0663 60.8333 31.642 60.9205 32.2898ZM64.8168 34.8864V40H62.7599V28.3636H64.7713V32.7557H64.8736C65.0781 32.2633 65.3944 31.875 65.8224 31.5909C66.2543 31.303 66.8035 31.1591 67.4702 31.1591C68.0762 31.1591 68.6046 31.286 69.0554 31.5398C69.5062 31.7936 69.8546 32.1648 70.1009 32.6534C70.3509 33.142 70.4759 33.7386 70.4759 34.4432V40H68.419V34.7614C68.419 34.1742 68.2675 33.7178 67.9645 33.392C67.6652 33.0625 67.2448 32.8977 66.7031 32.8977C66.3395 32.8977 66.0137 32.9773 65.7259 33.1364C65.4418 33.2917 65.2183 33.517 65.0554 33.8125C64.8963 34.108 64.8168 34.4659 64.8168 34.8864ZM75.0838 40.1761C74.5308 40.1761 74.0327 40.0777 73.5895 39.8807C73.1501 39.6799 72.8016 39.3845 72.544 38.9943C72.2902 38.6042 72.1634 38.1231 72.1634 37.5511C72.1634 37.0587 72.2543 36.6515 72.4361 36.3295C72.6179 36.0076 72.866 35.75 73.1804 35.5568C73.4948 35.3636 73.849 35.2178 74.2429 35.1193C74.6406 35.017 75.0516 34.9432 75.4759 34.8977C75.9872 34.8447 76.402 34.7973 76.7202 34.7557C77.0384 34.7102 77.2694 34.642 77.4134 34.5511C77.5611 34.4564 77.6349 34.3106 77.6349 34.1136V34.0795C77.6349 33.6515 77.508 33.3201 77.2543 33.0852C77.0005 32.8504 76.6349 32.733 76.1577 32.733C75.6539 32.733 75.2543 32.8428 74.9588 33.0625C74.6671 33.2822 74.4702 33.5417 74.3679 33.8409L72.4474 33.5682C72.599 33.0379 72.849 32.5947 73.1974 32.2386C73.5459 31.8788 73.9721 31.6098 74.4759 31.4318C74.9796 31.25 75.5365 31.1591 76.1463 31.1591C76.5668 31.1591 76.9853 31.2083 77.402 31.3068C77.8187 31.4053 78.1993 31.5682 78.544 31.7955C78.8887 32.0189 79.1652 32.3239 79.3736 32.7102C79.5857 33.0966 79.6918 33.5795 79.6918 34.1591V40H77.7145V38.8011H77.6463C77.5213 39.0436 77.3452 39.2708 77.1179 39.483C76.8944 39.6913 76.6122 39.8598 76.2713 39.9886C75.9342 40.1136 75.5384 40.1761 75.0838 40.1761ZM75.6179 38.6648C76.0308 38.6648 76.3887 38.5833 76.6918 38.4205C76.9948 38.2538 77.2277 38.0341 77.3906 37.7614C77.5573 37.4886 77.6406 37.1913 77.6406 36.8693V35.8409C77.5762 35.8939 77.4664 35.9432 77.3111 35.9886C77.1596 36.0341 76.9891 36.0739 76.7997 36.108C76.6103 36.142 76.4228 36.1723 76.2372 36.1989C76.0516 36.2254 75.8906 36.2481 75.7543 36.267C75.4474 36.3087 75.1728 36.3769 74.9304 36.4716C74.688 36.5663 74.4967 36.6989 74.3565 36.8693C74.2164 37.036 74.1463 37.2519 74.1463 37.517C74.1463 37.8958 74.2846 38.1818 74.5611 38.375C74.8376 38.5682 75.1899 38.6648 75.6179 38.6648ZM81.7599 40V31.2727H83.7543V32.7273H83.8452C84.0043 32.2235 84.277 31.8352 84.6634 31.5625C85.0535 31.286 85.4986 31.1477 85.9986 31.1477C86.1122 31.1477 86.2391 31.1534 86.3793 31.1648C86.5232 31.1723 86.6425 31.1856 86.7372 31.2045V33.0966C86.6501 33.0663 86.5118 33.0398 86.3224 33.017C86.1368 32.9905 85.9569 32.9773 85.7827 32.9773C85.4077 32.9773 85.0705 33.0587 84.7713 33.2216C84.4759 33.3807 84.2429 33.6023 84.0724 33.8864C83.902 34.1705 83.8168 34.4981 83.8168 34.8693V40H81.7599ZM92.9304 31.2727V32.8636H87.9134V31.2727H92.9304ZM89.152 29.1818H91.2088V37.375C91.2088 37.6515 91.2505 37.8636 91.3338 38.0114C91.4209 38.1553 91.5346 38.2538 91.6747 38.3068C91.8149 38.3598 91.9702 38.3864 92.1406 38.3864C92.2694 38.3864 92.3868 38.3769 92.4929 38.358C92.6027 38.339 92.6861 38.322 92.7429 38.3068L93.0895 39.9148C92.9796 39.9527 92.8224 39.9943 92.6179 40.0398C92.4171 40.0852 92.1709 40.1117 91.8793 40.1193C91.3641 40.1345 90.9001 40.0568 90.4872 39.8864C90.0743 39.7121 89.7467 39.4432 89.5043 39.0795C89.2656 38.7159 89.1482 38.2614 89.152 37.7159V29.1818ZM103.33 28.3636V40H101.222V30.4148H101.153L98.4318 32.1534V30.2216L101.324 28.3636H103.33Z" fill="#333333"/>
<path d="M13.9545 54.2102V53.2727H20.5V54.2102H17.7557V62H16.6989V54.2102H13.9545ZM23.7045 62.1364C23.1136 62.1364 22.5952 61.9957 22.1491 61.7145C21.706 61.4332 21.3594 61.0398 21.1094 60.5341C20.8622 60.0284 20.7386 59.4375 20.7386 58.7614C20.7386 58.0795 20.8622 57.4844 21.1094 56.9759C21.3594 56.4673 21.706 56.0724 22.1491 55.7912C22.5952 55.5099 23.1136 55.3693 23.7045 55.3693C24.2955 55.3693 24.8125 55.5099 25.2557 55.7912C25.7017 56.0724 26.0483 56.4673 26.2955 56.9759C26.5455 57.4844 26.6705 58.0795 26.6705 58.7614C26.6705 59.4375 26.5455 60.0284 26.2955 60.5341C26.0483 61.0398 25.7017 61.4332 25.2557 61.7145C24.8125 61.9957 24.2955 62.1364 23.7045 62.1364ZM23.7045 61.233C24.1534 61.233 24.5227 61.1179 24.8125 60.8878C25.1023 60.6577 25.3168 60.3551 25.456 59.9801C25.5952 59.6051 25.6648 59.1989 25.6648 58.7614C25.6648 58.3239 25.5952 57.9162 25.456 57.5384C25.3168 57.1605 25.1023 56.8551 24.8125 56.6222C24.5227 56.3892 24.1534 56.2727 23.7045 56.2727C23.2557 56.2727 22.8864 56.3892 22.5966 56.6222C22.3068 56.8551 22.0923 57.1605 21.9531 57.5384C21.8139 57.9162 21.7443 58.3239 21.7443 58.7614C21.7443 59.1989 21.8139 59.6051 21.9531 59.9801C22.0923 60.3551 22.3068 60.6577 22.5966 60.8878C22.8864 61.1179 23.2557 61.233 23.7045 61.233ZM31.0522 55.4545V56.3068H27.6602V55.4545H31.0522ZM28.6488 53.8864H29.6545V60.125C29.6545 60.4091 29.6957 60.6222 29.7781 60.7642C29.8633 60.9034 29.9712 60.9972 30.1019 61.0455C30.2354 61.0909 30.3761 61.1136 30.5238 61.1136C30.6346 61.1136 30.7255 61.108 30.7965 61.0966C30.8675 61.0824 30.9244 61.071 30.967 61.0625L31.1715 61.9659C31.1033 61.9915 31.0082 62.017 30.886 62.0426C30.7638 62.071 30.609 62.0852 30.4215 62.0852C30.1374 62.0852 29.859 62.0241 29.5863 61.902C29.3164 61.7798 29.092 61.5938 28.913 61.3438C28.7369 61.0938 28.6488 60.7784 28.6488 60.3977V53.8864ZM34.4911 62.1534C34.0763 62.1534 33.6999 62.0753 33.3619 61.919C33.0238 61.7599 32.7553 61.5312 32.5565 61.233C32.3576 60.9318 32.2582 60.5682 32.2582 60.142C32.2582 59.767 32.332 59.4631 32.4798 59.2301C32.6275 58.9943 32.8249 58.8097 33.0721 58.6761C33.3192 58.5426 33.592 58.4432 33.8903 58.3778C34.1914 58.3097 34.494 58.2557 34.7979 58.2159C35.1957 58.1648 35.5181 58.1264 35.7653 58.1009C36.0153 58.0724 36.1971 58.0256 36.3107 57.9602C36.4272 57.8949 36.4854 57.7812 36.4854 57.6193V57.5852C36.4854 57.1648 36.3704 56.8381 36.1403 56.6051C35.913 56.3722 35.5678 56.2557 35.1048 56.2557C34.6246 56.2557 34.2482 56.3608 33.9755 56.571C33.7028 56.7812 33.511 57.0057 33.4002 57.2443L32.4457 56.9034C32.6161 56.5057 32.8434 56.196 33.1275 55.9744C33.4144 55.75 33.7269 55.5937 34.065 55.5057C34.4059 55.4148 34.7411 55.3693 35.0707 55.3693C35.2809 55.3693 35.5224 55.3949 35.7951 55.446C36.0707 55.4943 36.3363 55.5952 36.592 55.7486C36.8505 55.902 37.065 56.1335 37.2354 56.4432C37.4059 56.7528 37.4911 57.1676 37.4911 57.6875V62H36.4854V61.1136H36.4343C36.3661 61.2557 36.2525 61.4077 36.0934 61.5696C35.9343 61.7315 35.7227 61.8693 35.4585 61.983C35.1942 62.0966 34.8718 62.1534 34.4911 62.1534ZM34.6445 61.25C35.0423 61.25 35.3775 61.1719 35.6502 61.0156C35.9258 60.8594 36.1332 60.6577 36.2724 60.4105C36.4144 60.1634 36.4854 59.9034 36.4854 59.6307V58.7102C36.4428 58.7614 36.3491 58.8082 36.2042 58.8509C36.0621 58.8906 35.8974 58.9261 35.7099 58.9574C35.5252 58.9858 35.3448 59.0114 35.1687 59.0341C34.9954 59.054 34.8548 59.071 34.7468 59.0852C34.4854 59.1193 34.2411 59.1747 34.0138 59.2514C33.7894 59.3253 33.6076 59.4375 33.4684 59.5881C33.332 59.7358 33.2638 59.9375 33.2638 60.1932C33.2638 60.5426 33.3931 60.8068 33.6516 60.9858C33.913 61.1619 34.244 61.25 34.6445 61.25ZM40.3324 53.2727V62H39.3267V53.2727H40.3324ZM45.6857 62V53.2727H50.9528V54.2102H46.7425V57.1591H50.68V58.0966H46.7425V61.0625H51.021V62H45.6857ZM53.7269 58.0625V62H52.7212V55.4545H53.6928V56.4773H53.7781C53.9315 56.1449 54.1644 55.8778 54.4769 55.6761C54.7894 55.4716 55.1928 55.3693 55.6871 55.3693C56.1303 55.3693 56.5181 55.4602 56.8505 55.642C57.1829 55.821 57.4414 56.0938 57.6261 56.4602C57.8107 56.8239 57.9031 57.2841 57.9031 57.8409V62H56.8974V57.9091C56.8974 57.3949 56.7638 56.9943 56.4968 56.7074C56.2298 56.4176 55.8633 56.2727 55.3974 56.2727C55.0763 56.2727 54.7894 56.3423 54.5366 56.4815C54.2866 56.6207 54.0891 56.8239 53.9442 57.0909C53.7994 57.358 53.7269 57.6818 53.7269 58.0625ZM62.4851 62.1364C61.8544 62.1364 61.3104 61.9972 60.853 61.7188C60.3984 61.4375 60.0476 61.0455 59.8004 60.5426C59.5561 60.0369 59.4339 59.4489 59.4339 58.7784C59.4339 58.108 59.5561 57.517 59.8004 57.0057C60.0476 56.4915 60.3913 56.0909 60.8317 55.804C61.2749 55.5142 61.7919 55.3693 62.3828 55.3693C62.7237 55.3693 63.0604 55.4261 63.3928 55.5398C63.7251 55.6534 64.0277 55.8381 64.3004 56.0938C64.5732 56.3466 64.7905 56.6818 64.9524 57.0994C65.1143 57.517 65.1953 58.0312 65.1953 58.642V59.0682H60.1499V58.1989H64.1726C64.1726 57.8295 64.0987 57.5 63.951 57.2102C63.8061 56.9205 63.5987 56.6918 63.3288 56.5241C63.0618 56.3565 62.7464 56.2727 62.3828 56.2727C61.9822 56.2727 61.6357 56.3722 61.343 56.571C61.0533 56.767 60.8303 57.0227 60.674 57.3381C60.5178 57.6534 60.4396 57.9915 60.4396 58.3523V58.9318C60.4396 59.4261 60.5249 59.8452 60.6953 60.1889C60.8686 60.5298 61.1087 60.7898 61.4155 60.9688C61.7223 61.1449 62.0788 61.233 62.4851 61.233C62.7493 61.233 62.9879 61.196 63.201 61.1222C63.4169 61.0455 63.603 60.9318 63.7592 60.7812C63.9155 60.6278 64.0362 60.4375 64.1214 60.2102L65.093 60.483C64.9908 60.8125 64.8189 61.1023 64.5774 61.3523C64.3359 61.5994 64.0376 61.7926 63.6825 61.9318C63.3274 62.0682 62.9283 62.1364 62.4851 62.1364ZM66.7251 62V55.4545H67.6967V56.4432H67.7649C67.8842 56.1193 68.1001 55.8565 68.4126 55.6548C68.7251 55.4531 69.0774 55.3523 69.4695 55.3523C69.5433 55.3523 69.6357 55.3537 69.7464 55.3565C69.8572 55.3594 69.9411 55.3636 69.9979 55.3693V56.392C69.9638 56.3835 69.8857 56.3707 69.7635 56.3537C69.6442 56.3338 69.5178 56.3239 69.3842 56.3239C69.0661 56.3239 68.782 56.3906 68.532 56.5241C68.2848 56.6548 68.0888 56.8366 67.9439 57.0696C67.8018 57.2997 67.7308 57.5625 67.7308 57.858V62H66.7251ZM73.6328 64.5909C73.147 64.5909 72.7294 64.5284 72.38 64.4034C72.0305 64.2812 71.7393 64.1193 71.5064 63.9176C71.2763 63.7188 71.093 63.5057 70.9567 63.2784L71.7578 62.7159C71.8487 62.8352 71.9638 62.9716 72.103 63.125C72.2422 63.2812 72.4325 63.4162 72.674 63.5298C72.9183 63.6463 73.2379 63.7045 73.6328 63.7045C74.1612 63.7045 74.5973 63.5767 74.9411 63.321C75.2848 63.0653 75.4567 62.6648 75.4567 62.1193V60.7898H75.3714C75.2976 60.9091 75.1925 61.0568 75.0561 61.233C74.9226 61.4062 74.7294 61.5611 74.4766 61.6974C74.2266 61.831 73.8885 61.8977 73.4624 61.8977C72.9339 61.8977 72.4595 61.7727 72.0391 61.5227C71.6214 61.2727 71.2905 60.9091 71.0462 60.4318C70.8047 59.9545 70.6839 59.375 70.6839 58.6932C70.6839 58.0227 70.8018 57.4389 71.0376 56.9418C71.2734 56.4418 71.6016 56.0554 72.022 55.7827C72.4425 55.5071 72.9283 55.3693 73.4794 55.3693C73.9055 55.3693 74.2436 55.4403 74.4936 55.5824C74.7464 55.7216 74.9396 55.8807 75.0732 56.0597C75.2095 56.2358 75.3146 56.3807 75.3885 56.4943H75.4908V55.4545H76.4624V62.1875C76.4624 62.75 76.3345 63.2074 76.0788 63.5597C75.826 63.9148 75.4851 64.1747 75.0561 64.3395C74.63 64.5071 74.1555 64.5909 73.6328 64.5909ZM73.5987 60.9943C74.0021 60.9943 74.343 60.902 74.6214 60.7173C74.8999 60.5327 75.1115 60.267 75.2564 59.9205C75.4013 59.5739 75.4737 59.1591 75.4737 58.6761C75.4737 58.2045 75.4027 57.7884 75.2607 57.4276C75.1186 57.0668 74.9084 56.7841 74.63 56.5795C74.3516 56.375 74.0078 56.2727 73.5987 56.2727C73.1726 56.2727 72.8175 56.3807 72.5334 56.5966C72.2521 56.8125 72.0405 57.1023 71.8984 57.4659C71.7592 57.8295 71.6896 58.233 71.6896 58.6761C71.6896 59.1307 71.7607 59.5327 71.9027 59.8821C72.0476 60.2287 72.2607 60.5014 72.5419 60.7003C72.826 60.8963 73.1783 60.9943 73.5987 60.9943ZM78.951 64.4545C78.7805 64.4545 78.6286 64.4403 78.495 64.4119C78.3615 64.3864 78.2692 64.3608 78.218 64.3352L78.4737 63.4489C78.718 63.5114 78.9339 63.5341 79.1214 63.517C79.3089 63.5 79.4751 63.4162 79.62 63.2656C79.7678 63.1179 79.9027 62.8778 80.0249 62.5455L80.2124 62.0341L77.7919 55.4545H78.8828L80.6896 60.6705H80.7578L82.5646 55.4545H83.6555L80.8771 62.9545C80.7521 63.2926 80.5973 63.5724 80.4126 63.794C80.228 64.0185 80.0135 64.1847 79.7692 64.2926C79.5277 64.4006 79.255 64.4545 78.951 64.4545ZM88.4943 62V53.2727H91.4432C92.1278 53.2727 92.6875 53.3963 93.1222 53.6435C93.5597 53.8878 93.8835 54.2188 94.0938 54.6364C94.304 55.054 94.4091 55.5199 94.4091 56.0341C94.4091 56.5483 94.304 57.0156 94.0938 57.4361C93.8864 57.8565 93.5653 58.1918 93.1307 58.4418C92.696 58.6889 92.1392 58.8125 91.4602 58.8125H89.3466V57.875H91.4261C91.8949 57.875 92.2713 57.794 92.5554 57.6321C92.8395 57.4702 93.0455 57.2514 93.1733 56.9759C93.304 56.6974 93.3693 56.3835 93.3693 56.0341C93.3693 55.6847 93.304 55.3722 93.1733 55.0966C93.0455 54.821 92.8381 54.6051 92.5511 54.4489C92.2642 54.2898 91.8835 54.2102 91.4091 54.2102H89.5511V62H88.4943ZM95.9751 62V55.4545H96.9467V56.4432H97.0149C97.1342 56.1193 97.3501 55.8565 97.6626 55.6548C97.9751 55.4531 98.3274 55.3523 98.7195 55.3523C98.7933 55.3523 98.8857 55.3537 98.9964 55.3565C99.1072 55.3594 99.1911 55.3636 99.2479 55.3693V56.392C99.2138 56.3835 99.1357 56.3707 99.0135 56.3537C98.8942 56.3338 98.7678 56.3239 98.6342 56.3239C98.3161 56.3239 98.032 56.3906 97.782 56.5241C97.5348 56.6548 97.3388 56.8366 97.1939 57.0696C97.0518 57.2997 96.9808 57.5625 96.9808 57.858V62H95.9751ZM102.9 62.1364C102.309 62.1364 101.79 61.9957 101.344 61.7145C100.901 61.4332 100.555 61.0398 100.305 60.5341C100.058 60.0284 99.9339 59.4375 99.9339 58.7614C99.9339 58.0795 100.058 57.4844 100.305 56.9759C100.555 56.4673 100.901 56.0724 101.344 55.7912C101.79 55.5099 102.309 55.3693 102.9 55.3693C103.491 55.3693 104.008 55.5099 104.451 55.7912C104.897 56.0724 105.244 56.4673 105.491 56.9759C105.741 57.4844 105.866 58.0795 105.866 58.7614C105.866 59.4375 105.741 60.0284 105.491 60.5341C105.244 61.0398 104.897 61.4332 104.451 61.7145C104.008 61.9957 103.491 62.1364 102.9 62.1364ZM102.9 61.233C103.349 61.233 103.718 61.1179 104.008 60.8878C104.298 60.6577 104.512 60.3551 104.651 59.9801C104.79 59.6051 104.86 59.1989 104.86 58.7614C104.86 58.3239 104.79 57.9162 104.651 57.5384C104.512 57.1605 104.298 56.8551 104.008 56.6222C103.718 56.3892 103.349 56.2727 102.9 56.2727C102.451 56.2727 102.082 56.3892 101.792 56.6222C101.502 56.8551 101.288 57.1605 101.148 57.5384C101.009 57.9162 100.94 58.3239 100.94 58.7614C100.94 59.1989 101.009 59.6051 101.148 59.9801C101.288 60.3551 101.502 60.6577 101.792 60.8878C102.082 61.1179 102.451 61.233 102.9 61.233ZM109.873 62.1364C109.327 62.1364 108.846 61.9986 108.428 61.723C108.01 61.4446 107.684 61.0526 107.448 60.5469C107.212 60.0384 107.094 59.4375 107.094 58.7443C107.094 58.0568 107.212 57.4602 107.448 56.9545C107.684 56.4489 108.012 56.0582 108.432 55.7827C108.853 55.5071 109.338 55.3693 109.89 55.3693C110.316 55.3693 110.652 55.4403 110.9 55.5824C111.15 55.7216 111.34 55.8807 111.471 56.0597C111.604 56.2358 111.708 56.3807 111.782 56.4943H111.867V53.2727H112.873V62H111.901V60.9943H111.782C111.708 61.1136 111.603 61.2642 111.466 61.446C111.33 61.625 111.135 61.7855 110.882 61.9276C110.63 62.0668 110.293 62.1364 109.873 62.1364ZM110.009 61.233C110.412 61.233 110.753 61.1278 111.032 60.9176C111.31 60.7045 111.522 60.4105 111.667 60.0355C111.811 59.6577 111.884 59.2216 111.884 58.7273C111.884 58.2386 111.813 57.8111 111.671 57.4446C111.529 57.0753 111.319 56.7884 111.04 56.5838C110.762 56.3764 110.418 56.2727 110.009 56.2727C109.583 56.2727 109.228 56.3821 108.944 56.6009C108.662 56.8168 108.451 57.1108 108.309 57.483C108.169 57.8523 108.1 58.267 108.1 58.7273C108.1 59.1932 108.171 59.6165 108.313 59.9972C108.458 60.375 108.671 60.6761 108.952 60.9006C109.236 61.1222 109.588 61.233 110.009 61.233ZM118.979 59.3239V55.4545H119.985V62H118.979V60.892H118.911C118.757 61.2244 118.519 61.5071 118.195 61.7401C117.871 61.9702 117.462 62.0852 116.968 62.0852C116.559 62.0852 116.195 61.9957 115.877 61.8168C115.559 61.6349 115.309 61.3622 115.127 60.9986C114.945 60.6321 114.854 60.1705 114.854 59.6136V55.4545H115.86V59.5455C115.86 60.0227 115.993 60.4034 116.26 60.6875C116.53 60.9716 116.874 61.1136 117.292 61.1136C117.542 61.1136 117.796 61.0497 118.054 60.9219C118.316 60.794 118.534 60.598 118.711 60.3338C118.89 60.0696 118.979 59.733 118.979 59.3239ZM124.486 62.1364C123.872 62.1364 123.344 61.9915 122.901 61.7017C122.457 61.4119 122.116 61.0128 121.878 60.5043C121.639 59.9957 121.52 59.4148 121.52 58.7614C121.52 58.0966 121.642 57.5099 121.886 57.0014C122.134 56.4901 122.477 56.0909 122.918 55.804C123.361 55.5142 123.878 55.3693 124.469 55.3693C124.929 55.3693 125.344 55.4545 125.713 55.625C126.082 55.7955 126.385 56.0341 126.621 56.3409C126.857 56.6477 127.003 57.0057 127.06 57.4148H126.054C125.977 57.1165 125.807 56.8523 125.543 56.6222C125.281 56.3892 124.929 56.2727 124.486 56.2727C124.094 56.2727 123.75 56.375 123.455 56.5795C123.162 56.7812 122.933 57.0668 122.768 57.4361C122.607 57.8026 122.526 58.233 122.526 58.7273C122.526 59.233 122.605 59.6733 122.764 60.0483C122.926 60.4233 123.153 60.7145 123.446 60.9219C123.741 61.1293 124.088 61.233 124.486 61.233C124.747 61.233 124.984 61.1875 125.197 61.0966C125.411 61.0057 125.591 60.875 125.739 60.7045C125.886 60.5341 125.991 60.3295 126.054 60.0909H127.06C127.003 60.4773 126.862 60.8253 126.638 61.1349C126.416 61.4418 126.122 61.6861 125.756 61.8679C125.392 62.0469 124.969 62.1364 124.486 62.1364ZM131.274 62.1364C130.643 62.1364 130.099 61.9972 129.642 61.7188C129.188 61.4375 128.837 61.0455 128.589 60.5426C128.345 60.0369 128.223 59.4489 128.223 58.7784C128.223 58.108 128.345 57.517 128.589 57.0057C128.837 56.4915 129.18 56.0909 129.621 55.804C130.064 55.5142 130.581 55.3693 131.172 55.3693C131.513 55.3693 131.849 55.4261 132.182 55.5398C132.514 55.6534 132.817 55.8381 133.089 56.0938C133.362 56.3466 133.58 56.6818 133.741 57.0994C133.903 57.517 133.984 58.0312 133.984 58.642V59.0682H128.939V58.1989H132.962C132.962 57.8295 132.888 57.5 132.74 57.2102C132.595 56.9205 132.388 56.6918 132.118 56.5241C131.851 56.3565 131.536 56.2727 131.172 56.2727C130.771 56.2727 130.425 56.3722 130.132 56.571C129.842 56.767 129.619 57.0227 129.463 57.3381C129.307 57.6534 129.229 57.9915 129.229 58.3523V58.9318C129.229 59.4261 129.314 59.8452 129.484 60.1889C129.658 60.5298 129.898 60.7898 130.205 60.9688C130.511 61.1449 130.868 61.233 131.274 61.233C131.538 61.233 131.777 61.196 131.99 61.1222C132.206 61.0455 132.392 60.9318 132.548 60.7812C132.705 60.6278 132.825 60.4375 132.911 60.2102L133.882 60.483C133.78 60.8125 133.608 61.1023 133.366 61.3523C133.125 61.5994 132.827 61.7926 132.472 61.9318C132.116 62.0682 131.717 62.1364 131.274 62.1364ZM137.986 62.1364C137.44 62.1364 136.959 61.9986 136.541 61.723C136.124 61.4446 135.797 61.0526 135.561 60.5469C135.325 60.0384 135.207 59.4375 135.207 58.7443C135.207 58.0568 135.325 57.4602 135.561 56.9545C135.797 56.4489 136.125 56.0582 136.545 55.7827C136.966 55.5071 137.452 55.3693 138.003 55.3693C138.429 55.3693 138.766 55.4403 139.013 55.5824C139.263 55.7216 139.453 55.8807 139.584 56.0597C139.717 56.2358 139.821 56.3807 139.895 56.4943H139.98V53.2727H140.986V62H140.014V60.9943H139.895C139.821 61.1136 139.716 61.2642 139.58 61.446C139.443 61.625 139.249 61.7855 138.996 61.9276C138.743 62.0668 138.406 62.1364 137.986 62.1364ZM138.122 61.233C138.526 61.233 138.866 61.1278 139.145 60.9176C139.423 60.7045 139.635 60.4105 139.78 60.0355C139.925 59.6577 139.997 59.2216 139.997 58.7273C139.997 58.2386 139.926 57.8111 139.784 57.4446C139.642 57.0753 139.432 56.7884 139.153 56.5838C138.875 56.3764 138.531 56.2727 138.122 56.2727C137.696 56.2727 137.341 56.3821 137.057 56.6009C136.776 56.8168 136.564 57.1108 136.422 57.483C136.283 57.8523 136.213 58.267 136.213 58.7273C136.213 59.1932 136.284 59.6165 136.426 59.9972C136.571 60.375 136.784 60.6761 137.065 60.9006C137.349 61.1222 137.702 61.233 138.122 61.233Z" fill="#7F7F80"/>
<path d="M478.492 29.8182H480.575L483.066 34.3224H483.166L485.656 29.8182H487.739L484.036 36.2017V40H482.196V36.2017L478.492 29.8182ZM491.205 40.1491C490.439 40.1491 489.778 39.9901 489.221 39.6719C488.668 39.3504 488.242 38.8963 487.944 38.3097C487.645 37.7197 487.496 37.0253 487.496 36.2266C487.496 35.4411 487.645 34.7517 487.944 34.1584C488.245 33.5618 488.666 33.0978 489.206 32.7663C489.747 32.4316 490.381 32.2642 491.11 32.2642C491.581 32.2642 492.025 32.3404 492.443 32.4929C492.864 32.642 493.235 32.8741 493.556 33.1889C493.881 33.5038 494.137 33.9048 494.322 34.392C494.508 34.8759 494.601 35.4527 494.601 36.1222V36.674H488.341V35.4609H492.875C492.872 35.1162 492.797 34.8097 492.652 34.5412C492.506 34.2694 492.302 34.0556 492.04 33.8999C491.782 33.7441 491.48 33.6662 491.135 33.6662C490.767 33.6662 490.444 33.7557 490.166 33.9347C489.887 34.1103 489.67 34.3423 489.515 34.6307C489.362 34.9157 489.284 35.2289 489.281 35.5703V36.6293C489.281 37.0734 489.362 37.4545 489.525 37.7727C489.687 38.0876 489.914 38.3295 490.206 38.4986C490.497 38.6643 490.839 38.7472 491.23 38.7472C491.492 38.7472 491.729 38.7107 491.941 38.6378C492.153 38.5616 492.337 38.4505 492.493 38.3047C492.648 38.1589 492.766 37.9782 492.846 37.7628L494.526 37.9517C494.42 38.3958 494.218 38.7836 493.919 39.1151C493.624 39.4432 493.247 39.6984 492.786 39.8807C492.325 40.0597 491.798 40.1491 491.205 40.1491ZM498.601 40.1541C498.117 40.1541 497.681 40.0679 497.293 39.8956C496.909 39.7199 496.604 39.4614 496.378 39.12C496.156 38.7786 496.045 38.3577 496.045 37.8572C496.045 37.4264 496.125 37.0701 496.284 36.7884C496.443 36.5066 496.66 36.2812 496.935 36.1122C497.21 35.9432 497.52 35.8156 497.865 35.7294C498.213 35.6399 498.572 35.5753 498.944 35.5355C499.391 35.4891 499.754 35.4477 500.032 35.4112C500.311 35.3714 500.513 35.3118 500.639 35.2322C500.768 35.1494 500.833 35.0218 500.833 34.8494V34.8196C500.833 34.4451 500.722 34.1551 500.5 33.9496C500.278 33.7441 499.958 33.6413 499.54 33.6413C499.099 33.6413 498.75 33.7375 498.491 33.9297C498.236 34.1219 498.064 34.349 497.974 34.6108L496.294 34.3722C496.426 33.9081 496.645 33.5204 496.95 33.2088C497.255 32.8939 497.628 32.6586 498.069 32.5028C498.509 32.3438 498.997 32.2642 499.53 32.2642C499.898 32.2642 500.264 32.3073 500.629 32.3935C500.994 32.4796 501.327 32.6222 501.628 32.821C501.93 33.0166 502.172 33.2834 502.354 33.6214C502.54 33.9595 502.632 34.3821 502.632 34.8892V40H500.902V38.951H500.843C500.733 39.1631 500.579 39.362 500.38 39.5476C500.185 39.7299 499.938 39.8774 499.64 39.9901C499.345 40.0994 498.998 40.1541 498.601 40.1541ZM499.068 38.8317C499.429 38.8317 499.742 38.7604 500.007 38.6179C500.273 38.4721 500.476 38.2798 500.619 38.0412C500.765 37.8026 500.838 37.5424 500.838 37.2607V36.3608C500.781 36.4072 500.685 36.4503 500.549 36.4901C500.417 36.5298 500.268 36.5646 500.102 36.5945C499.936 36.6243 499.772 36.6508 499.61 36.674C499.447 36.6972 499.306 36.7171 499.187 36.7337C498.919 36.7701 498.678 36.8298 498.466 36.9126C498.254 36.9955 498.087 37.1115 497.964 37.2607C497.842 37.4065 497.78 37.5954 497.78 37.8274C497.78 38.1589 497.901 38.4091 498.143 38.5781C498.385 38.7472 498.693 38.8317 499.068 38.8317ZM504.722 40V32.3636H506.467V33.6364H506.547C506.686 33.1955 506.925 32.8558 507.263 32.6172C507.604 32.3752 507.993 32.2543 508.431 32.2543C508.53 32.2543 508.641 32.2592 508.764 32.2692C508.89 32.2758 508.994 32.2874 509.077 32.304V33.9595C509.001 33.933 508.88 33.9098 508.714 33.8899C508.552 33.8667 508.394 33.8551 508.242 33.8551C507.914 33.8551 507.619 33.9264 507.357 34.0689C507.099 34.2081 506.895 34.402 506.746 34.6506C506.596 34.8991 506.522 35.1858 506.522 35.5107V40H504.722ZM512.353 29.8182V40H510.553V29.8182H512.353ZM515.602 42.8636C515.357 42.8636 515.13 42.8438 514.921 42.804C514.715 42.7675 514.551 42.7244 514.429 42.6747L514.846 41.2727C515.108 41.349 515.342 41.3854 515.547 41.3821C515.753 41.3788 515.933 41.3142 516.089 41.1882C516.248 41.0656 516.382 40.8601 516.492 40.5717L516.646 40.1591L513.877 32.3636H515.786L517.546 38.1307H517.625L519.39 32.3636H521.304L518.247 40.9247C518.104 41.3291 517.915 41.6754 517.68 41.9638C517.445 42.2554 517.156 42.4775 516.815 42.63C516.477 42.7857 516.073 42.8636 515.602 42.8636Z" fill="#333333"/>
<path d="M492.985 60V59.233L495.866 56.0795C496.204 55.7102 496.483 55.3892 496.701 55.1165C496.92 54.8409 497.082 54.5824 497.187 54.3409C497.295 54.0966 497.349 53.8409 497.349 53.5739C497.349 53.267 497.275 53.0014 497.127 52.777C496.983 52.5526 496.784 52.3793 496.531 52.2571C496.278 52.1349 495.994 52.0739 495.679 52.0739C495.343 52.0739 495.051 52.1435 494.801 52.2827C494.554 52.419 494.362 52.6108 494.225 52.858C494.092 53.1051 494.025 53.3949 494.025 53.7273H493.02C493.02 53.2159 493.137 52.767 493.373 52.3807C493.609 51.9943 493.93 51.6932 494.336 51.4773C494.745 51.2614 495.204 51.1534 495.713 51.1534C496.224 51.1534 496.677 51.2614 497.072 51.4773C497.467 51.6932 497.777 51.9844 498.001 52.3509C498.225 52.7173 498.338 53.125 498.338 53.5739C498.338 53.8949 498.279 54.2088 498.163 54.5156C498.049 54.8196 497.85 55.1591 497.566 55.5341C497.285 55.9062 496.895 56.3608 496.395 56.8977L494.434 58.9943V59.0625H498.491V60H492.985ZM503.098 60.1193C502.456 60.1193 501.909 59.9446 501.457 59.5952C501.005 59.2429 500.66 58.733 500.422 58.0653C500.183 57.3949 500.064 56.5852 500.064 55.6364C500.064 54.6932 500.183 53.8878 500.422 53.2202C500.663 52.5497 501.01 52.0384 501.461 51.6861C501.916 51.331 502.461 51.1534 503.098 51.1534C503.734 51.1534 504.278 51.331 504.73 51.6861C505.184 52.0384 505.531 52.5497 505.77 53.2202C506.011 53.8878 506.132 54.6932 506.132 55.6364C506.132 56.5852 506.012 57.3949 505.774 58.0653C505.535 58.733 505.19 59.2429 504.738 59.5952C504.287 59.9446 503.74 60.1193 503.098 60.1193ZM503.098 59.1818C503.734 59.1818 504.228 58.875 504.581 58.2614C504.933 57.6477 505.109 56.7727 505.109 55.6364C505.109 54.8807 505.028 54.2372 504.866 53.706C504.707 53.1747 504.477 52.7699 504.176 52.4915C503.877 52.2131 503.518 52.0739 503.098 52.0739C502.467 52.0739 501.974 52.3849 501.619 53.0071C501.264 53.6264 501.086 54.5028 501.086 55.6364C501.086 56.392 501.166 57.0341 501.325 57.5625C501.484 58.0909 501.713 58.4929 502.011 58.7685C502.312 59.044 502.674 59.1818 503.098 59.1818ZM507.751 60V59.233L510.632 56.0795C510.97 55.7102 511.248 55.3892 511.467 55.1165C511.686 54.8409 511.848 54.5824 511.953 54.3409C512.061 54.0966 512.115 53.8409 512.115 53.5739C512.115 53.267 512.041 53.0014 511.893 52.777C511.748 52.5526 511.549 52.3793 511.297 52.2571C511.044 52.1349 510.76 52.0739 510.444 52.0739C510.109 52.0739 509.816 52.1435 509.566 52.2827C509.319 52.419 509.127 52.6108 508.991 52.858C508.858 53.1051 508.791 53.3949 508.791 53.7273H507.785C507.785 53.2159 507.903 52.767 508.139 52.3807C508.375 51.9943 508.696 51.6932 509.102 51.4773C509.511 51.2614 509.97 51.1534 510.478 51.1534C510.99 51.1534 511.443 51.2614 511.838 51.4773C512.233 51.6932 512.542 51.9844 512.767 52.3509C512.991 52.7173 513.103 53.125 513.103 53.5739C513.103 53.8949 513.045 54.2088 512.929 54.5156C512.815 54.8196 512.616 55.1591 512.332 55.5341C512.051 55.9062 511.66 56.3608 511.16 56.8977L509.2 58.9943V59.0625H513.257V60H507.751ZM514.625 58.2102V57.3409L518.46 51.2727H519.091V52.6193H518.664L515.767 57.2045V57.2727H520.931V58.2102H514.625ZM518.733 60V57.946V57.5412V51.2727H519.738V60H518.733Z" fill="#7F7F80"/>
<line x1="36.7813" y1="277.5" x2="521.625" y2="277.5" stroke="white"/>
<line x1="36.7813" y1="237.5" x2="521.625" y2="237.5" stroke="white"/>
<line x1="36.7813" y1="197.5" x2="521.625" y2="197.5" stroke="white"/>
<line x1="36.7813" y1="157.5" x2="521.625" y2="157.5" stroke="white"/>
<line x1="36.7813" y1="117.5" x2="521.625" y2="117.5" stroke="white"/>
<rect x="129.5" y="323" width="16" height="16" rx="8" fill="#1E74A6"/>
<path d="M154.557 335V326.273H159.824V327.21H155.614V330.159H159.551V331.097H155.614V334.062H159.892V335H154.557ZM162.598 331.062V335H161.592V328.455H162.564V329.477H162.649C162.803 329.145 163.036 328.878 163.348 328.676C163.661 328.472 164.064 328.369 164.558 328.369C165.001 328.369 165.389 328.46 165.722 328.642C166.054 328.821 166.313 329.094 166.497 329.46C166.682 329.824 166.774 330.284 166.774 330.841V335H165.768V330.909C165.768 330.395 165.635 329.994 165.368 329.707C165.101 329.418 164.734 329.273 164.268 329.273C163.947 329.273 163.661 329.342 163.408 329.482C163.158 329.621 162.96 329.824 162.815 330.091C162.67 330.358 162.598 330.682 162.598 331.062ZM171.356 335.136C170.725 335.136 170.181 334.997 169.724 334.719C169.27 334.438 168.919 334.045 168.672 333.543C168.427 333.037 168.305 332.449 168.305 331.778C168.305 331.108 168.427 330.517 168.672 330.006C168.919 329.491 169.262 329.091 169.703 328.804C170.146 328.514 170.663 328.369 171.254 328.369C171.595 328.369 171.931 328.426 172.264 328.54C172.596 328.653 172.899 328.838 173.172 329.094C173.444 329.347 173.662 329.682 173.824 330.099C173.985 330.517 174.066 331.031 174.066 331.642V332.068H169.021V331.199H173.044C173.044 330.83 172.97 330.5 172.822 330.21C172.677 329.92 172.47 329.692 172.2 329.524C171.933 329.357 171.618 329.273 171.254 329.273C170.853 329.273 170.507 329.372 170.214 329.571C169.924 329.767 169.701 330.023 169.545 330.338C169.389 330.653 169.311 330.991 169.311 331.352V331.932C169.311 332.426 169.396 332.845 169.566 333.189C169.74 333.53 169.98 333.79 170.287 333.969C170.593 334.145 170.95 334.233 171.356 334.233C171.62 334.233 171.859 334.196 172.072 334.122C172.288 334.045 172.474 333.932 172.63 333.781C172.787 333.628 172.907 333.437 172.993 333.21L173.964 333.483C173.862 333.812 173.69 334.102 173.449 334.352C173.207 334.599 172.909 334.793 172.554 334.932C172.199 335.068 171.799 335.136 171.356 335.136ZM175.596 335V328.455H176.568V329.443H176.636C176.755 329.119 176.971 328.857 177.284 328.655C177.596 328.453 177.949 328.352 178.341 328.352C178.414 328.352 178.507 328.354 178.618 328.357C178.728 328.359 178.812 328.364 178.869 328.369V329.392C178.835 329.384 178.757 329.371 178.635 329.354C178.515 329.334 178.389 329.324 178.255 329.324C177.937 329.324 177.653 329.391 177.403 329.524C177.156 329.655 176.96 329.837 176.815 330.07C176.673 330.3 176.602 330.562 176.602 330.858V335H175.596ZM182.504 337.591C182.018 337.591 181.6 337.528 181.251 337.403C180.902 337.281 180.61 337.119 180.377 336.918C180.147 336.719 179.964 336.506 179.828 336.278L180.629 335.716C180.72 335.835 180.835 335.972 180.974 336.125C181.113 336.281 181.304 336.416 181.545 336.53C181.789 336.646 182.109 336.705 182.504 336.705C183.032 336.705 183.468 336.577 183.812 336.321C184.156 336.065 184.328 335.665 184.328 335.119V333.79H184.243C184.169 333.909 184.064 334.057 183.927 334.233C183.794 334.406 183.6 334.561 183.348 334.697C183.098 334.831 182.76 334.898 182.333 334.898C181.805 334.898 181.331 334.773 180.91 334.523C180.493 334.273 180.162 333.909 179.917 333.432C179.676 332.955 179.555 332.375 179.555 331.693C179.555 331.023 179.673 330.439 179.909 329.942C180.145 329.442 180.473 329.055 180.893 328.783C181.314 328.507 181.799 328.369 182.35 328.369C182.777 328.369 183.115 328.44 183.365 328.582C183.618 328.722 183.811 328.881 183.944 329.06C184.081 329.236 184.186 329.381 184.26 329.494H184.362V328.455H185.333V335.188C185.333 335.75 185.206 336.207 184.95 336.56C184.697 336.915 184.356 337.175 183.927 337.339C183.501 337.507 183.027 337.591 182.504 337.591ZM182.47 333.994C182.873 333.994 183.214 333.902 183.493 333.717C183.771 333.533 183.983 333.267 184.127 332.92C184.272 332.574 184.345 332.159 184.345 331.676C184.345 331.205 184.274 330.788 184.132 330.428C183.99 330.067 183.779 329.784 183.501 329.58C183.223 329.375 182.879 329.273 182.47 329.273C182.044 329.273 181.689 329.381 181.404 329.597C181.123 329.812 180.912 330.102 180.77 330.466C180.63 330.83 180.561 331.233 180.561 331.676C180.561 332.131 180.632 332.533 180.774 332.882C180.919 333.229 181.132 333.501 181.413 333.7C181.697 333.896 182.049 333.994 182.47 333.994ZM187.822 337.455C187.652 337.455 187.5 337.44 187.366 337.412C187.233 337.386 187.14 337.361 187.089 337.335L187.345 336.449C187.589 336.511 187.805 336.534 187.993 336.517C188.18 336.5 188.346 336.416 188.491 336.266C188.639 336.118 188.774 335.878 188.896 335.545L189.083 335.034L186.663 328.455H187.754L189.561 333.67H189.629L191.436 328.455H192.527L189.748 335.955C189.623 336.293 189.468 336.572 189.284 336.794C189.099 337.018 188.885 337.185 188.64 337.293C188.399 337.401 188.126 337.455 187.822 337.455ZM197.365 335V326.273H200.314C200.999 326.273 201.559 326.396 201.993 326.643C202.431 326.888 202.755 327.219 202.965 327.636C203.175 328.054 203.28 328.52 203.28 329.034C203.28 329.548 203.175 330.016 202.965 330.436C202.757 330.857 202.436 331.192 202.002 331.442C201.567 331.689 201.01 331.812 200.331 331.812H198.218V330.875H200.297C200.766 330.875 201.142 330.794 201.426 330.632C201.711 330.47 201.917 330.251 202.044 329.976C202.175 329.697 202.24 329.384 202.24 329.034C202.24 328.685 202.175 328.372 202.044 328.097C201.917 327.821 201.709 327.605 201.422 327.449C201.135 327.29 200.755 327.21 200.28 327.21H198.422V335H197.365ZM204.846 335V328.455H205.818V329.443H205.886C206.005 329.119 206.221 328.857 206.534 328.655C206.846 328.453 207.199 328.352 207.591 328.352C207.664 328.352 207.757 328.354 207.868 328.357C207.978 328.359 208.062 328.364 208.119 328.369V329.392C208.085 329.384 208.007 329.371 207.885 329.354C207.765 329.334 207.639 329.324 207.505 329.324C207.187 329.324 206.903 329.391 206.653 329.524C206.406 329.655 206.21 329.837 206.065 330.07C205.923 330.3 205.852 330.562 205.852 330.858V335H204.846ZM211.771 335.136C211.18 335.136 210.662 334.996 210.216 334.714C209.772 334.433 209.426 334.04 209.176 333.534C208.929 333.028 208.805 332.437 208.805 331.761C208.805 331.08 208.929 330.484 209.176 329.976C209.426 329.467 209.772 329.072 210.216 328.791C210.662 328.51 211.18 328.369 211.771 328.369C212.362 328.369 212.879 328.51 213.322 328.791C213.768 329.072 214.115 329.467 214.362 329.976C214.612 330.484 214.737 331.08 214.737 331.761C214.737 332.437 214.612 333.028 214.362 333.534C214.115 334.04 213.768 334.433 213.322 334.714C212.879 334.996 212.362 335.136 211.771 335.136ZM211.771 334.233C212.22 334.233 212.589 334.118 212.879 333.888C213.169 333.658 213.383 333.355 213.522 332.98C213.662 332.605 213.731 332.199 213.731 331.761C213.731 331.324 213.662 330.916 213.522 330.538C213.383 330.161 213.169 329.855 212.879 329.622C212.589 329.389 212.22 329.273 211.771 329.273C211.322 329.273 210.953 329.389 210.663 329.622C210.373 329.855 210.159 330.161 210.02 330.538C209.88 330.916 209.811 331.324 209.811 331.761C209.811 332.199 209.88 332.605 210.02 332.98C210.159 333.355 210.373 333.658 210.663 333.888C210.953 334.118 211.322 334.233 211.771 334.233ZM218.744 335.136C218.198 335.136 217.717 334.999 217.299 334.723C216.881 334.445 216.555 334.053 216.319 333.547C216.083 333.038 215.965 332.438 215.965 331.744C215.965 331.057 216.083 330.46 216.319 329.955C216.555 329.449 216.883 329.058 217.303 328.783C217.724 328.507 218.21 328.369 218.761 328.369C219.187 328.369 219.523 328.44 219.771 328.582C220.021 328.722 220.211 328.881 220.342 329.06C220.475 329.236 220.579 329.381 220.653 329.494H220.738V326.273H221.744V335H220.772V333.994H220.653C220.579 334.114 220.474 334.264 220.337 334.446C220.201 334.625 220.006 334.786 219.754 334.928C219.501 335.067 219.164 335.136 218.744 335.136ZM218.88 334.233C219.283 334.233 219.624 334.128 219.903 333.918C220.181 333.705 220.393 333.411 220.538 333.036C220.683 332.658 220.755 332.222 220.755 331.727C220.755 331.239 220.684 330.811 220.542 330.445C220.4 330.075 220.19 329.788 219.911 329.584C219.633 329.376 219.289 329.273 218.88 329.273C218.454 329.273 218.099 329.382 217.815 329.601C217.533 329.817 217.322 330.111 217.18 330.483C217.04 330.852 216.971 331.267 216.971 331.727C216.971 332.193 217.042 332.616 217.184 332.997C217.329 333.375 217.542 333.676 217.823 333.901C218.107 334.122 218.46 334.233 218.88 334.233ZM227.85 332.324V328.455H228.856V335H227.85V333.892H227.782C227.629 334.224 227.39 334.507 227.066 334.74C226.742 334.97 226.333 335.085 225.839 335.085C225.43 335.085 225.066 334.996 224.748 334.817C224.43 334.635 224.18 334.362 223.998 333.999C223.816 333.632 223.725 333.17 223.725 332.614V328.455H224.731V332.545C224.731 333.023 224.864 333.403 225.131 333.688C225.401 333.972 225.745 334.114 226.163 334.114C226.413 334.114 226.667 334.05 226.925 333.922C227.187 333.794 227.406 333.598 227.582 333.334C227.761 333.07 227.85 332.733 227.85 332.324ZM233.357 335.136C232.743 335.136 232.215 334.991 231.772 334.702C231.328 334.412 230.988 334.013 230.749 333.504C230.51 332.996 230.391 332.415 230.391 331.761C230.391 331.097 230.513 330.51 230.757 330.001C231.005 329.49 231.348 329.091 231.789 328.804C232.232 328.514 232.749 328.369 233.34 328.369C233.8 328.369 234.215 328.455 234.584 328.625C234.953 328.795 235.256 329.034 235.492 329.341C235.728 329.648 235.874 330.006 235.931 330.415H234.925C234.848 330.116 234.678 329.852 234.414 329.622C234.152 329.389 233.8 329.273 233.357 329.273C232.965 329.273 232.621 329.375 232.326 329.58C232.033 329.781 231.804 330.067 231.64 330.436C231.478 330.803 231.397 331.233 231.397 331.727C231.397 332.233 231.476 332.673 231.635 333.048C231.797 333.423 232.025 333.714 232.317 333.922C232.613 334.129 232.959 334.233 233.357 334.233C233.618 334.233 233.855 334.188 234.069 334.097C234.282 334.006 234.462 333.875 234.61 333.705C234.757 333.534 234.863 333.33 234.925 333.091H235.931C235.874 333.477 235.733 333.825 235.509 334.135C235.287 334.442 234.993 334.686 234.627 334.868C234.263 335.047 233.84 335.136 233.357 335.136ZM240.145 335.136C239.515 335.136 238.971 334.997 238.513 334.719C238.059 334.438 237.708 334.045 237.461 333.543C237.216 333.037 237.094 332.449 237.094 331.778C237.094 331.108 237.216 330.517 237.461 330.006C237.708 329.491 238.051 329.091 238.492 328.804C238.935 328.514 239.452 328.369 240.043 328.369C240.384 328.369 240.721 328.426 241.053 328.54C241.385 328.653 241.688 328.838 241.961 329.094C242.233 329.347 242.451 329.682 242.613 330.099C242.775 330.517 242.855 331.031 242.855 331.642V332.068H237.81V331.199H241.833C241.833 330.83 241.759 330.5 241.611 330.21C241.466 329.92 241.259 329.692 240.989 329.524C240.722 329.357 240.407 329.273 240.043 329.273C239.642 329.273 239.296 329.372 239.003 329.571C238.713 329.767 238.49 330.023 238.334 330.338C238.178 330.653 238.1 330.991 238.1 331.352V331.932C238.1 332.426 238.185 332.845 238.355 333.189C238.529 333.53 238.769 333.79 239.076 333.969C239.382 334.145 239.739 334.233 240.145 334.233C240.409 334.233 240.648 334.196 240.861 334.122C241.077 334.045 241.263 333.932 241.419 333.781C241.576 333.628 241.696 333.437 241.782 333.21L242.753 333.483C242.651 333.812 242.479 334.102 242.238 334.352C241.996 334.599 241.698 334.793 241.343 334.932C240.988 335.068 240.588 335.136 240.145 335.136ZM246.857 335.136C246.311 335.136 245.83 334.999 245.412 334.723C244.995 334.445 244.668 334.053 244.432 333.547C244.196 333.038 244.078 332.438 244.078 331.744C244.078 331.057 244.196 330.46 244.432 329.955C244.668 329.449 244.996 329.058 245.417 328.783C245.837 328.507 246.323 328.369 246.874 328.369C247.3 328.369 247.637 328.44 247.884 328.582C248.134 328.722 248.324 328.881 248.455 329.06C248.588 329.236 248.692 329.381 248.766 329.494H248.851V326.273H249.857V335H248.885V333.994H248.766C248.692 334.114 248.587 334.264 248.451 334.446C248.314 334.625 248.12 334.786 247.867 334.928C247.614 335.067 247.277 335.136 246.857 335.136ZM246.993 334.233C247.397 334.233 247.738 334.128 248.016 333.918C248.294 333.705 248.506 333.411 248.651 333.036C248.796 332.658 248.868 332.222 248.868 331.727C248.868 331.239 248.797 330.811 248.655 330.445C248.513 330.075 248.303 329.788 248.025 329.584C247.746 329.376 247.402 329.273 246.993 329.273C246.567 329.273 246.212 329.382 245.928 329.601C245.647 329.817 245.435 330.111 245.293 330.483C245.154 330.852 245.084 331.267 245.084 331.727C245.084 332.193 245.155 332.616 245.297 332.997C245.442 333.375 245.655 333.676 245.936 333.901C246.221 334.122 246.573 334.233 246.993 334.233Z" fill="#333333"/>
<rect x="291.5" y="323" width="16" height="16" rx="8" fill="#FCB614"/>
<path d="M316.557 335V326.273H321.824V327.21H317.614V330.159H321.551V331.097H317.614V334.062H321.892V335H316.557ZM324.598 331.062V335H323.592V328.455H324.564V329.477H324.649C324.803 329.145 325.036 328.878 325.348 328.676C325.661 328.472 326.064 328.369 326.558 328.369C327.001 328.369 327.389 328.46 327.722 328.642C328.054 328.821 328.313 329.094 328.497 329.46C328.682 329.824 328.774 330.284 328.774 330.841V335H327.768V330.909C327.768 330.395 327.635 329.994 327.368 329.707C327.101 329.418 326.734 329.273 326.268 329.273C325.947 329.273 325.661 329.342 325.408 329.482C325.158 329.621 324.96 329.824 324.815 330.091C324.67 330.358 324.598 330.682 324.598 331.062ZM333.356 335.136C332.725 335.136 332.181 334.997 331.724 334.719C331.27 334.438 330.919 334.045 330.672 333.543C330.427 333.037 330.305 332.449 330.305 331.778C330.305 331.108 330.427 330.517 330.672 330.006C330.919 329.491 331.262 329.091 331.703 328.804C332.146 328.514 332.663 328.369 333.254 328.369C333.595 328.369 333.931 328.426 334.264 328.54C334.596 328.653 334.899 328.838 335.172 329.094C335.444 329.347 335.662 329.682 335.824 330.099C335.985 330.517 336.066 331.031 336.066 331.642V332.068H331.021V331.199H335.044C335.044 330.83 334.97 330.5 334.822 330.21C334.677 329.92 334.47 329.692 334.2 329.524C333.933 329.357 333.618 329.273 333.254 329.273C332.853 329.273 332.507 329.372 332.214 329.571C331.924 329.767 331.701 330.023 331.545 330.338C331.389 330.653 331.311 330.991 331.311 331.352V331.932C331.311 332.426 331.396 332.845 331.566 333.189C331.74 333.53 331.98 333.79 332.287 333.969C332.593 334.145 332.95 334.233 333.356 334.233C333.62 334.233 333.859 334.196 334.072 334.122C334.288 334.045 334.474 333.932 334.63 333.781C334.787 333.628 334.907 333.437 334.993 333.21L335.964 333.483C335.862 333.812 335.69 334.102 335.449 334.352C335.207 334.599 334.909 334.793 334.554 334.932C334.199 335.068 333.799 335.136 333.356 335.136ZM337.596 335V328.455H338.568V329.443H338.636C338.755 329.119 338.971 328.857 339.284 328.655C339.596 328.453 339.949 328.352 340.341 328.352C340.414 328.352 340.507 328.354 340.618 328.357C340.728 328.359 340.812 328.364 340.869 328.369V329.392C340.835 329.384 340.757 329.371 340.635 329.354C340.515 329.334 340.389 329.324 340.255 329.324C339.937 329.324 339.653 329.391 339.403 329.524C339.156 329.655 338.96 329.837 338.815 330.07C338.673 330.3 338.602 330.562 338.602 330.858V335H337.596ZM344.504 337.591C344.018 337.591 343.6 337.528 343.251 337.403C342.902 337.281 342.61 337.119 342.377 336.918C342.147 336.719 341.964 336.506 341.828 336.278L342.629 335.716C342.72 335.835 342.835 335.972 342.974 336.125C343.113 336.281 343.304 336.416 343.545 336.53C343.789 336.646 344.109 336.705 344.504 336.705C345.032 336.705 345.468 336.577 345.812 336.321C346.156 336.065 346.328 335.665 346.328 335.119V333.79H346.243C346.169 333.909 346.064 334.057 345.927 334.233C345.794 334.406 345.6 334.561 345.348 334.697C345.098 334.831 344.76 334.898 344.333 334.898C343.805 334.898 343.331 334.773 342.91 334.523C342.493 334.273 342.162 333.909 341.917 333.432C341.676 332.955 341.555 332.375 341.555 331.693C341.555 331.023 341.673 330.439 341.909 329.942C342.145 329.442 342.473 329.055 342.893 328.783C343.314 328.507 343.799 328.369 344.35 328.369C344.777 328.369 345.115 328.44 345.365 328.582C345.618 328.722 345.811 328.881 345.944 329.06C346.081 329.236 346.186 329.381 346.26 329.494H346.362V328.455H347.333V335.188C347.333 335.75 347.206 336.207 346.95 336.56C346.697 336.915 346.356 337.175 345.927 337.339C345.501 337.507 345.027 337.591 344.504 337.591ZM344.47 333.994C344.873 333.994 345.214 333.902 345.493 333.717C345.771 333.533 345.983 333.267 346.127 332.92C346.272 332.574 346.345 332.159 346.345 331.676C346.345 331.205 346.274 330.788 346.132 330.428C345.99 330.067 345.779 329.784 345.501 329.58C345.223 329.375 344.879 329.273 344.47 329.273C344.044 329.273 343.689 329.381 343.404 329.597C343.123 329.812 342.912 330.102 342.77 330.466C342.63 330.83 342.561 331.233 342.561 331.676C342.561 332.131 342.632 332.533 342.774 332.882C342.919 333.229 343.132 333.501 343.413 333.7C343.697 333.896 344.049 333.994 344.47 333.994ZM349.822 337.455C349.652 337.455 349.5 337.44 349.366 337.412C349.233 337.386 349.14 337.361 349.089 337.335L349.345 336.449C349.589 336.511 349.805 336.534 349.993 336.517C350.18 336.5 350.346 336.416 350.491 336.266C350.639 336.118 350.774 335.878 350.896 335.545L351.083 335.034L348.663 328.455H349.754L351.561 333.67H351.629L353.436 328.455H354.527L351.748 335.955C351.623 336.293 351.468 336.572 351.284 336.794C351.099 337.018 350.885 337.185 350.64 337.293C350.399 337.401 350.126 337.455 349.822 337.455ZM359.365 335V326.273H362.314C362.996 326.273 363.556 326.389 363.993 326.622C364.431 326.852 364.755 327.169 364.965 327.572C365.175 327.976 365.28 328.435 365.28 328.949C365.28 329.463 365.175 329.919 364.965 330.317C364.755 330.714 364.432 331.027 363.998 331.254C363.563 331.479 363.007 331.591 362.331 331.591H359.945V330.636H362.297C362.763 330.636 363.138 330.568 363.422 330.432C363.709 330.295 363.917 330.102 364.044 329.852C364.175 329.599 364.24 329.298 364.24 328.949C364.24 328.599 364.175 328.294 364.044 328.033C363.914 327.771 363.705 327.57 363.418 327.428C363.131 327.283 362.752 327.21 362.28 327.21H360.422V335H359.365ZM363.473 331.08L365.621 335H364.394L362.28 331.08H363.473ZM369.579 335.136C368.948 335.136 368.404 334.997 367.947 334.719C367.492 334.438 367.141 334.045 366.894 333.543C366.65 333.037 366.528 332.449 366.528 331.778C366.528 331.108 366.65 330.517 366.894 330.006C367.141 329.491 367.485 329.091 367.925 328.804C368.369 328.514 368.886 328.369 369.477 328.369C369.817 328.369 370.154 328.426 370.487 328.54C370.819 328.653 371.121 328.838 371.394 329.094C371.667 329.347 371.884 329.682 372.046 330.099C372.208 330.517 372.289 331.031 372.289 331.642V332.068H367.244V331.199H371.266C371.266 330.83 371.192 330.5 371.045 330.21C370.9 329.92 370.692 329.692 370.423 329.524C370.156 329.357 369.84 329.273 369.477 329.273C369.076 329.273 368.729 329.372 368.437 329.571C368.147 329.767 367.924 330.023 367.768 330.338C367.612 330.653 367.533 330.991 367.533 331.352V331.932C367.533 332.426 367.619 332.845 367.789 333.189C367.962 333.53 368.202 333.79 368.509 333.969C368.816 334.145 369.173 334.233 369.579 334.233C369.843 334.233 370.082 334.196 370.295 334.122C370.511 334.045 370.697 333.932 370.853 333.781C371.009 333.628 371.13 333.437 371.215 333.21L372.187 333.483C372.085 333.812 371.913 334.102 371.671 334.352C371.43 334.599 371.131 334.793 370.776 334.932C370.421 335.068 370.022 335.136 369.579 335.136ZM378.285 337.455V333.994H378.2C378.126 334.114 378.021 334.264 377.884 334.446C377.748 334.625 377.553 334.786 377.3 334.928C377.048 335.067 376.711 335.136 376.29 335.136C375.745 335.136 375.263 334.999 374.846 334.723C374.428 334.445 374.102 334.053 373.866 333.547C373.63 333.038 373.512 332.438 373.512 331.744C373.512 331.057 373.63 330.46 373.866 329.955C374.102 329.449 374.43 329.058 374.85 328.783C375.271 328.507 375.756 328.369 376.308 328.369C376.734 328.369 377.07 328.44 377.317 328.582C377.567 328.722 377.758 328.881 377.888 329.06C378.022 329.236 378.126 329.381 378.2 329.494H378.319V328.455H379.29V337.455H378.285ZM376.427 334.233C376.83 334.233 377.171 334.128 377.45 333.918C377.728 333.705 377.94 333.411 378.085 333.036C378.229 332.658 378.302 332.222 378.302 331.727C378.302 331.239 378.231 330.811 378.089 330.445C377.947 330.075 377.737 329.788 377.458 329.584C377.18 329.376 376.836 329.273 376.427 329.273C376.001 329.273 375.646 329.382 375.362 329.601C375.08 329.817 374.869 330.111 374.727 330.483C374.587 330.852 374.518 331.267 374.518 331.727C374.518 332.193 374.589 332.616 374.731 332.997C374.876 333.375 375.089 333.676 375.37 333.901C375.654 334.122 376.006 334.233 376.427 334.233ZM385.256 332.324V328.455H386.262V335H385.256V333.892H385.188C385.035 334.224 384.796 334.507 384.472 334.74C384.148 334.97 383.739 335.085 383.245 335.085C382.836 335.085 382.472 334.996 382.154 334.817C381.836 334.635 381.586 334.362 381.404 333.999C381.222 333.632 381.131 333.17 381.131 332.614V328.455H382.137V332.545C382.137 333.023 382.271 333.403 382.538 333.688C382.808 333.972 383.151 334.114 383.569 334.114C383.819 334.114 384.073 334.05 384.332 333.922C384.593 333.794 384.812 333.598 384.988 333.334C385.167 333.07 385.256 332.733 385.256 332.324ZM390.848 335.136C390.218 335.136 389.674 334.997 389.216 334.719C388.762 334.438 388.411 334.045 388.164 333.543C387.919 333.037 387.797 332.449 387.797 331.778C387.797 331.108 387.919 330.517 388.164 330.006C388.411 329.491 388.755 329.091 389.195 328.804C389.638 328.514 390.155 328.369 390.746 328.369C391.087 328.369 391.424 328.426 391.756 328.54C392.088 328.653 392.391 328.838 392.664 329.094C392.936 329.347 393.154 329.682 393.316 330.099C393.478 330.517 393.559 331.031 393.559 331.642V332.068H388.513V331.199H392.536C392.536 330.83 392.462 330.5 392.314 330.21C392.169 329.92 391.962 329.692 391.692 329.524C391.425 329.357 391.11 329.273 390.746 329.273C390.346 329.273 389.999 329.372 389.706 329.571C389.417 329.767 389.194 330.023 389.037 330.338C388.881 330.653 388.803 330.991 388.803 331.352V331.932C388.803 332.426 388.888 332.845 389.059 333.189C389.232 333.53 389.472 333.79 389.779 333.969C390.086 334.145 390.442 334.233 390.848 334.233C391.113 334.233 391.351 334.196 391.564 334.122C391.78 334.045 391.966 333.932 392.123 333.781C392.279 333.628 392.4 333.437 392.485 333.21L393.456 333.483C393.354 333.812 393.182 334.102 392.941 334.352C392.699 334.599 392.401 334.793 392.046 334.932C391.691 335.068 391.292 335.136 390.848 335.136ZM399.725 329.92L398.821 330.176C398.765 330.026 398.681 329.879 398.57 329.737C398.462 329.592 398.314 329.473 398.127 329.379C397.939 329.286 397.699 329.239 397.407 329.239C397.006 329.239 396.672 329.331 396.405 329.516C396.141 329.697 396.009 329.929 396.009 330.21C396.009 330.46 396.1 330.658 396.282 330.803C396.463 330.947 396.748 331.068 397.134 331.165L398.105 331.403C398.691 331.545 399.127 331.763 399.414 332.055C399.701 332.345 399.844 332.719 399.844 333.176C399.844 333.551 399.736 333.886 399.52 334.182C399.307 334.477 399.009 334.71 398.625 334.881C398.242 335.051 397.796 335.136 397.287 335.136C396.62 335.136 396.067 334.991 395.63 334.702C395.192 334.412 394.915 333.989 394.799 333.432L395.753 333.193C395.844 333.545 396.016 333.81 396.269 333.986C396.525 334.162 396.858 334.25 397.27 334.25C397.739 334.25 398.111 334.151 398.387 333.952C398.665 333.75 398.804 333.509 398.804 333.227C398.804 333 398.725 332.81 398.566 332.656C398.407 332.5 398.162 332.384 397.833 332.307L396.742 332.051C396.142 331.909 395.702 331.689 395.421 331.391C395.142 331.089 395.003 330.713 395.003 330.261C395.003 329.892 395.107 329.565 395.314 329.281C395.525 328.997 395.81 328.774 396.171 328.612C396.534 328.45 396.946 328.369 397.407 328.369C398.054 328.369 398.563 328.511 398.932 328.795C399.304 329.08 399.569 329.455 399.725 329.92ZM404.205 328.455V329.307H400.812V328.455H404.205ZM401.801 326.886H402.807V333.125C402.807 333.409 402.848 333.622 402.93 333.764C403.016 333.903 403.124 333.997 403.254 334.045C403.388 334.091 403.528 334.114 403.676 334.114C403.787 334.114 403.878 334.108 403.949 334.097C404.02 334.082 404.077 334.071 404.119 334.062L404.324 334.966C404.256 334.991 404.161 335.017 404.038 335.043C403.916 335.071 403.761 335.085 403.574 335.085C403.29 335.085 403.011 335.024 402.739 334.902C402.469 334.78 402.244 334.594 402.065 334.344C401.889 334.094 401.801 333.778 401.801 333.398V326.886Z" fill="#333333"/>
<mask id="mask0_1454_18075" style="mask-type:alpha" maskUnits="userSpaceOnUse" x="36" y="118" width="486" height="189">
<rect x="36.7812" y="118" width="484.844" height="189" fill="white"/>
</mask>
<g mask="url(#mask0_1454_18075)">
<path d="M-12.1305 279.45H-33.2266V313H526.807V191C526.148 195.067 524.763 203.81 524.5 206.25C524.17 209.3 518.237 217.23 515.27 213.57C512.303 209.91 506.041 209.3 502.744 211.13C499.448 212.96 500.107 209.3 493.844 206.25C487.581 203.2 485.604 212.96 482.307 214.79C479.011 216.62 474.067 212.96 471.759 209.3L471.661 209.143C469.367 205.502 466.368 200.743 458.245 199.54C450.004 198.32 448.356 217.23 445.06 223.94C441.764 230.65 434.182 226.99 432.204 225.77C430.227 224.55 428.579 220.28 422.316 223.94C416.053 227.6 410.12 240.41 402.538 241.02C394.957 241.63 388.364 231.87 383.09 231.87C377.816 231.87 379.464 233.7 372.213 236.75C364.961 239.8 352.435 231.87 348.15 228.82C343.865 225.77 338.261 228.82 335.295 231.87C332.328 234.92 321.78 235.53 318.813 233.7C315.847 231.87 307.276 227.6 305.299 231.87C303.321 236.14 294.421 228.82 291.784 228.82C289.147 228.82 290.466 224.55 283.543 222.11C276.621 219.67 272.007 231.87 270.029 233.7C268.051 235.53 264.425 232.48 261.129 228.82C257.833 225.16 244.318 221.5 236.407 224.55C228.496 227.6 227.837 236.75 222.563 237.97C217.289 239.19 214.981 247.73 212.344 247.73C209.707 247.73 208.059 247.73 205.752 245.29C203.444 242.85 197.841 245.29 195.533 247.73C193.226 250.17 189.271 251.39 184.656 252C180.041 252.61 177.404 247.12 173.778 245.29C170.152 243.46 165.208 242.24 155.978 242.85C146.749 243.46 147.078 254.44 137.519 258.71C127.96 262.98 121.038 257.49 114.446 255.66C107.853 253.83 102.249 262.37 99.2828 265.42C96.3162 268.47 89.7237 265.42 83.1312 262.37C76.5387 259.32 73.9017 265.42 72.9128 265.42C71.9239 265.42 67.3092 273.35 62.0352 265.42C56.7612 257.49 54.4538 259.93 52.476 259.93C50.4983 259.93 49.1798 264.2 46.2131 262.37C43.2465 260.54 43.2465 255.05 38.3021 255.66C33.3578 256.27 29.7319 269.08 28.0837 270.91C26.4356 272.74 22.8097 275.18 20.1727 275.79C17.5357 276.4 17.5357 273.35 9.62473 272.13C1.71372 270.91 -2.90103 279.45 -12.1305 279.45Z" fill="white" fill-opacity="0.04" stroke="#1E74A6" stroke-width="2"/>
</g>
<line x1="135.922" y1="264" x2="135.922" y2="277" stroke="#E5E7E9"/>
<path d="M135.422 265C138.443 265 140.602 262.138 140.602 259C140.602 255.862 138.443 253 135.422 253C132.401 253 130.242 255.862 130.242 259C130.242 262.138 132.401 265 135.422 265Z" fill="#FCB614" stroke="white" stroke-width="2"/>
<line x1="36.7812" y1="117" x2="521.625" y2="117" stroke="#179246" stroke-width="2"/>
</g>
<defs>
<clipPath id="clip0_1454_18075">
<rect width="535" height="371" fill="white"/>
</clipPath>
</defs>
</svg>
