<svg width="206" height="171" viewBox="0 0 206 171" fill="none" xmlns="http://www.w3.org/2000/svg">
    <circle cx="100.926" cy="88" r="62.5" fill="#1E74A6" fill-opacity="0.2"/>
    <circle cx="100.926" cy="88" r="50" fill="#1E74A6"/>
    <path fill-rule="evenodd" clip-rule="evenodd" d="M51.1826 35.9593C52.028 35.9593 52.7133 35.2741 52.7133 34.4287C52.7133 33.5834 52.028 32.8981 51.1826 32.8981C50.3373 32.8981 49.652 33.5834 49.652 34.4287C49.652 35.2741 50.3373 35.9593 51.1826 35.9593ZM51.1826 36.7246C52.4506 36.7246 53.4786 35.6967 53.4786 34.4287C53.4786 33.1607 52.4506 32.1328 51.1826 32.1328C49.9146 32.1328 48.8867 33.1607 48.8867 34.4287C48.8867 35.6967 49.9146 36.7246 51.1826 36.7246Z" fill="#1E74A6"/>
    <path fill-rule="evenodd" clip-rule="evenodd" d="M33.5791 84.1742C34.4245 84.1742 35.1097 83.4889 35.1097 82.6436C35.1097 81.7982 34.4245 81.113 33.5791 81.113C32.7338 81.113 32.0485 81.7982 32.0485 82.6436C32.0485 83.4889 32.7338 84.1742 33.5791 84.1742ZM33.5791 84.9395C34.8471 84.9395 35.875 83.9116 35.875 82.6436C35.875 81.3756 34.8471 80.3477 33.5791 80.3477C32.3111 80.3477 31.2832 81.3756 31.2832 82.6436C31.2832 83.9116 32.3111 84.9395 33.5791 84.9395Z" fill="#1E74A6"/>
    <path fill-rule="evenodd" clip-rule="evenodd" d="M9.2217 92.8265C10.067 92.8265 10.7523 92.1412 10.7523 91.2959C10.7523 90.4506 10.067 89.7653 9.2217 89.7653C8.37637 89.7653 7.69109 90.4506 7.69109 91.2959C7.69109 92.1412 8.37637 92.8265 9.2217 92.8265ZM9.2217 93.5918C10.4897 93.5918 11.5176 92.5639 11.5176 91.2959C11.5176 90.0279 10.4897 89 9.2217 89C7.9537 89 6.92578 90.0279 6.92578 91.2959C6.92578 92.5639 7.9537 93.5918 9.2217 93.5918Z" fill="#1E74A6"/>
    <path fill-rule="evenodd" clip-rule="evenodd" d="M75.6722 24.4796C77.3629 24.4796 78.7335 23.109 78.7335 21.4183C78.7335 19.7277 77.3629 18.3571 75.6722 18.3571C73.9816 18.3571 72.611 19.7277 72.611 21.4183C72.611 23.109 73.9816 24.4796 75.6722 24.4796ZM75.6722 25.2449C77.7856 25.2449 79.4988 23.5317 79.4988 21.4183C79.4988 19.305 77.7856 17.5918 75.6722 17.5918C73.5589 17.5918 71.8457 19.305 71.8457 21.4183C71.8457 23.5317 73.5589 25.2449 75.6722 25.2449Z" fill="#1E74A6"/>
    <path fill-rule="evenodd" clip-rule="evenodd" d="M37.4053 127.795C38.2506 127.795 38.9359 127.11 38.9359 126.265C38.9359 125.419 38.2506 124.734 37.4053 124.734C36.56 124.734 35.8747 125.419 35.8747 126.265C35.8747 127.11 36.56 127.795 37.4053 127.795ZM37.4053 128.561C38.6733 128.561 39.7012 127.533 39.7012 126.265C39.7012 124.997 38.6733 123.969 37.4053 123.969C36.1373 123.969 35.1094 124.997 35.1094 126.265C35.1094 127.533 36.1373 128.561 37.4053 128.561Z" fill="#1E74A6"/>
    <path fill-rule="evenodd" clip-rule="evenodd" d="M38.9359 26.0098C40.6266 26.0098 41.9971 24.6393 41.9971 22.9486C41.9971 21.2579 40.6266 19.8874 38.9359 19.8874C37.2452 19.8874 35.8747 21.2579 35.8747 22.9486C35.8747 24.6393 37.2452 26.0098 38.9359 26.0098ZM38.9359 26.7751C41.0492 26.7751 42.7624 25.0619 42.7624 22.9486C42.7624 20.8353 41.0492 19.1221 38.9359 19.1221C36.8226 19.1221 35.1094 20.8353 35.1094 22.9486C35.1094 25.0619 36.8226 26.7751 38.9359 26.7751Z" fill="#1E74A6"/>
    <path fill-rule="evenodd" clip-rule="evenodd" d="M15.7523 53.8878C17.443 53.8878 18.8135 52.5172 18.8135 50.8265C18.8135 49.1359 17.443 47.7653 15.7523 47.7653C14.0616 47.7653 12.6911 49.1359 12.6911 50.8265C12.6911 52.5172 14.0616 53.8878 15.7523 53.8878ZM15.7523 54.6531C17.8656 54.6531 19.5788 52.9399 19.5788 50.8265C19.5788 48.7132 17.8656 47 15.7523 47C13.639 47 11.9258 48.7132 11.9258 50.8265C11.9258 52.9399 13.639 54.6531 15.7523 54.6531Z" fill="#1E74A6"/>
    <path fill-rule="evenodd" clip-rule="evenodd" d="M126.182 26.0098C127.873 26.0098 129.243 24.6393 129.243 22.9486C129.243 21.2579 127.873 19.8874 126.182 19.8874C124.491 19.8874 123.121 21.2579 123.121 22.9486C123.121 24.6393 124.491 26.0098 126.182 26.0098ZM126.182 26.7751C128.295 26.7751 130.009 25.0619 130.009 22.9486C130.009 20.8353 128.295 19.1221 126.182 19.1221C124.069 19.1221 122.355 20.8353 122.355 22.9486C122.355 25.0619 124.069 26.7751 126.182 26.7751Z" fill="#1E74A6"/>
    <path fill-rule="evenodd" clip-rule="evenodd" d="M163.682 54.3272C165.373 54.3272 166.743 52.9567 166.743 51.266C166.743 49.5753 165.373 48.2048 163.682 48.2048C161.991 48.2048 160.621 49.5753 160.621 51.266C160.621 52.9567 161.991 54.3272 163.682 54.3272ZM163.682 55.0925C165.795 55.0925 167.509 53.3793 167.509 51.266C167.509 49.1526 165.795 47.4395 163.682 47.4395C161.569 47.4395 159.855 49.1526 159.855 51.266C159.855 53.3793 161.569 55.0925 163.682 55.0925Z" fill="#1E74A6"/>
    <path fill-rule="evenodd" clip-rule="evenodd" d="M160.752 23.8878C162.443 23.8878 163.814 22.5172 163.814 20.8265C163.814 19.1359 162.443 17.7653 160.752 17.7653C159.062 17.7653 157.691 19.1359 157.691 20.8265C157.691 22.5172 159.062 23.8878 160.752 23.8878ZM160.752 24.6531C162.866 24.6531 164.579 22.9399 164.579 20.8265C164.579 18.7132 162.866 17 160.752 17C158.639 17 156.926 18.7132 156.926 20.8265C156.926 22.9399 158.639 24.6531 160.752 24.6531Z" fill="#1E74A6"/>
    <ellipse cx="143.784" cy="143.868" rx="2.29593" ry="2.29591" fill="#1E74A6"/>
    <ellipse cx="173.222" cy="151.296" rx="2.29593" ry="2.29591" fill="#1E74A6"/>
    <path fill-rule="evenodd" clip-rule="evenodd" d="M116.233 158.407C117.923 158.407 119.294 157.037 119.294 155.346C119.294 153.655 117.923 152.285 116.233 152.285C114.542 152.285 113.172 153.655 113.172 155.346C113.172 157.037 114.542 158.407 116.233 158.407ZM116.233 159.173C118.346 159.173 120.059 157.459 120.059 155.346C120.059 153.233 118.346 151.52 116.233 151.52C114.119 151.52 112.406 153.233 112.406 155.346C112.406 157.459 114.119 159.173 116.233 159.173Z" fill="#1E74A6"/>
    <path fill-rule="evenodd" clip-rule="evenodd" d="M34.3441 158.407C36.0348 158.407 37.4053 157.037 37.4053 155.346C37.4053 153.655 36.0348 152.285 34.3441 152.285C32.6534 152.285 31.2829 153.655 31.2829 155.346C31.2829 157.037 32.6534 158.407 34.3441 158.407ZM34.3441 159.173C36.4574 159.173 38.1706 157.459 38.1706 155.346C38.1706 153.233 36.4574 151.52 34.3441 151.52C32.2308 151.52 30.5176 153.233 30.5176 155.346C30.5176 157.459 32.2308 159.173 34.3441 159.173Z" fill="#1E74A6"/>
    <path fill-rule="evenodd" clip-rule="evenodd" d="M137.752 169.888C139.443 169.888 140.814 168.517 140.814 166.827C140.814 165.136 139.443 163.765 137.752 163.765C136.062 163.765 134.691 165.136 134.691 166.827C134.691 168.517 136.062 169.888 137.752 169.888ZM137.752 170.653C139.866 170.653 141.579 168.94 141.579 166.827C141.579 164.713 139.866 163 137.752 163C135.639 163 133.926 164.713 133.926 166.827C133.926 168.94 135.639 170.653 137.752 170.653Z" fill="#1E74A6"/>
    <ellipse cx="64.958" cy="146.163" rx="2.29591" ry="2.29593" fill="#1E74A6"/>
    <circle cx="20.9258" cy="68" r="5" fill="#1E74A6"/>
    <circle cx="116.926" cy="5" r="5" fill="#1E74A6"/>
    <circle cx="25.9258" cy="109" r="5" fill="#1E74A6"/>
    <circle cx="55.9258" cy="9" r="5" fill="#1E74A6"/>
    <circle cx="147.926" cy="5" r="5" fill="#1E74A6"/>
    <circle cx="182.926" cy="33" r="5" fill="#1E74A6"/>
    <circle cx="200.926" cy="86" r="5" fill="#1E74A6"/>
    <circle cx="180.926" cy="127" r="5" fill="#1E74A6"/>
    <path fill-rule="evenodd" clip-rule="evenodd" d="M37.3113 43.9968L31.5715 47.3107L37.3113 50.6245L37.3113 43.9968ZM36.546 45.3223L33.1021 47.3107L36.546 49.299L36.546 45.3223Z" fill="#1E74A6"/>
    <path fill-rule="evenodd" clip-rule="evenodd" d="M3.65989 64.4747L4.05742 71.0905L9.58813 67.4383L3.65989 64.4747ZM4.50332 65.752L4.74184 69.7214L8.06027 67.5302L4.50332 65.752Z" fill="#1E74A6"/>
    <path fill-rule="evenodd" clip-rule="evenodd" d="M167.361 117.559L160.931 115.952L162.754 122.324L167.361 117.559ZM165.889 117.98L162.031 117.016L163.125 120.839L165.889 117.98Z" fill="#1E74A6"/>
    <path fill-rule="evenodd" clip-rule="evenodd" d="M199.101 111.801L201.354 105.568L194.83 106.733L199.101 111.801ZM198.832 110.295L200.184 106.555L196.269 107.254L198.832 110.295Z" fill="#1E74A6"/>
    <path fill-rule="evenodd" clip-rule="evenodd" d="M99.3567 162.186L92.9269 160.579L94.7497 166.951L99.3567 162.186ZM97.8852 162.607L94.0272 161.643L95.121 165.466L97.8852 162.607Z" fill="#1E74A6"/>
    <path fill-rule="evenodd" clip-rule="evenodd" d="M163.494 142.128L162.186 135.631L157.213 140.013L163.494 142.128ZM162.482 140.98L161.697 137.082L158.714 139.711L162.482 140.98Z" fill="#1E74A6"/>
    <path fill-rule="evenodd" clip-rule="evenodd" d="M147.122 37.6189L152.82 34.2343L147.039 30.9917L147.122 37.6189ZM147.87 36.284L151.289 34.2532L147.821 32.3077L147.87 36.284Z" fill="#1E74A6"/>
    <path fill-rule="evenodd" clip-rule="evenodd" d="M45.3031 141.135L48.8503 146.733L51.9252 140.862L45.3031 141.135ZM46.659 141.845L48.7873 145.204L50.6323 141.681L46.659 141.845Z" fill="#1E74A6"/>
    <path fill-rule="evenodd" clip-rule="evenodd" d="M166.223 76.0839L169.77 81.6825L172.845 75.8112L166.223 76.0839ZM167.579 76.794L169.707 80.1532L171.552 76.6304L167.579 76.794Z" fill="#1E74A6"/>
    <path fill-rule="evenodd" clip-rule="evenodd" d="M194.12 60.2841L200.616 58.9673L196.228 54.0003L194.12 60.2841ZM195.267 59.2707L199.165 58.4806L196.532 55.5004L195.267 59.2707Z" fill="#1E74A6"/>
    <path fill-rule="evenodd" clip-rule="evenodd" d="M95.2455 8.42909L100.598 16.8763L105.237 8.01764L95.2455 8.42909ZM97.2913 9.50052L100.503 14.5688L103.286 9.25365L97.2913 9.50052Z" fill="#1E74A6"/>
    <path fill-rule="evenodd" clip-rule="evenodd" d="M82.1825 154.16L81.1665 158.005L85.0041 156.963L82.1825 154.16ZM82.5837 155.637L82.2451 156.919L83.5243 156.572L82.5837 155.637Z" fill="#1E74A6"/>
    <path d="M178.612 96.7575L178.088 105.402L170.864 100.626L178.612 96.7575Z" fill="#1E74A6"/>
    <path d="M182.926 67L187.256 74.5H178.596L182.926 67Z" fill="#1E74A6"/>
    <path d="M9.48518 109.705L9.3674 118.365L1.92699 113.933L9.48518 109.705Z" fill="#1E74A6"/>
    <path d="M16.3415 133.794L24.7607 131.765L22.3085 140.071L16.3415 133.794Z" fill="#1E74A6"/>
    <path d="M95.6295 98.2993C93.8973 98.2993 92.4931 96.8951 92.4931 95.1629C92.4931 92.4503 93.0712 90.091 94.2274 88.0848C95.3835 86.0786 97.4985 83.9453 100.572 81.6848C103.533 79.5656 105.479 77.8419 106.41 76.5139C107.368 75.1859 107.848 73.7024 107.848 72.0636C107.848 70.2269 107.171 68.8283 105.817 67.8675C104.464 66.9068 102.574 66.4265 100.149 66.4265C97.2338 66.4265 94.0371 67.0842 90.559 68.3997C87.808 69.4402 84.614 68.4282 83.3056 65.7941C82.0542 63.2749 82.9849 60.179 85.5807 59.0955C90.5247 57.0318 95.691 56 101.08 56C106.889 56 111.5 57.3987 114.912 60.196C118.352 62.9934 120.072 66.7232 120.072 71.3854C120.072 74.4936 119.367 77.1779 117.957 79.4384C116.547 81.6989 113.868 84.2419 109.92 87.0676C107.213 89.0737 105.493 90.5996 104.76 91.645C104.055 92.6905 103.702 94.0609 103.702 95.7563C103.702 97.1608 102.564 98.2993 101.159 98.2993H95.6295ZM91.1395 112.795C91.1395 110.421 91.774 108.627 93.043 107.412C94.312 106.197 96.159 105.589 98.5842 105.589C100.925 105.589 102.73 106.211 103.999 107.454C105.296 108.698 105.944 110.478 105.944 112.795C105.944 115.027 105.296 116.793 103.999 118.093C102.701 119.364 100.897 120 98.5842 120C96.2154 120 94.3825 119.378 93.0853 118.135C91.7881 116.864 91.1395 115.083 91.1395 112.795Z" fill="white"/>
</svg>
