<svg width="1184" height="424" viewBox="0 0 1184 424" fill="none" xmlns="http://www.w3.org/2000/svg">
<g clip-path="url(#clip0_1445_73354)">
<rect width="1184" height="424" rx="16" fill="#136695"/>
<path fill-rule="evenodd" clip-rule="evenodd" d="M1755 154.564C1713.11 153.163 1670.41 153.943 1626.96 156.868C1671.64 152.797 1714.31 151.103 1755 151.383V147.203C1707.37 146.911 1658.73 149.385 1609.19 154.601C1660.29 148.081 1708.88 144.644 1755 143.73V139.525C1700.89 140.61 1645.53 145.229 1589.05 153.297C1647.48 143.705 1702.79 138.111 1755 135.747V131.53C1694.95 134.26 1633.48 141.231 1570.68 152.37C1635.84 139.476 1697.28 131.518 1755 127.496V123.279C1691.36 127.716 1626.13 136.844 1559.51 150.579C1559.35 150.555 1559.22 150.53 1559.05 150.506C1628.44 134.821 1693.77 124.693 1755 118.99V114.748C1687.9 120.988 1619.13 132.359 1548.92 148.751C1493.97 139.428 1437.33 133.968 1379.19 132.396C1108.06 125.108 898.974 188.189 696.772 249.211C693.53 250.198 690.312 251.16 687.083 252.148C670.763 256.206 654.578 260.191 638.515 264.091C621.453 267.333 604.597 270.429 587.852 273.366C568.925 275.693 550.253 277.777 531.802 279.581C522.746 279.971 513.752 280.3 504.831 280.556C479.895 279.935 455.581 278.655 431.828 276.681C407.002 273.085 382.822 268.613 359.166 263.287C357.155 262.714 355.144 262.153 353.157 261.568C346.491 259.18 339.885 256.706 333.34 254.122C315.364 247.078 297.85 239.363 280.727 231.076C265.31 222.52 250.331 213.465 235.743 203.971C218.997 191.565 202.873 178.5 187.297 164.838C176.487 154.272 165.994 143.401 155.817 132.274C138.157 110.8 121.668 88.5457 106.202 65.7311C91.4062 41.186 77.3175 15.2149 63.9112 -12.1455C60.3403 -20.311 56.8912 -28.513 53.5519 -36.7272C29.3231 -103.769 11.9681 -172.298 0 -238V-213.053C4.65562 -189.885 10.0912 -166.059 16.4409 -141.757C10.4203 -161.574 4.96031 -181.22 0 -200.585V-186.399C9.56719 -150.824 20.8284 -114.531 34.0762 -78.1396C22.0837 -106.902 10.725 -137.028 0 -168.52V-155.553C16.6481 -107.596 34.7953 -63.1492 54.5269 -21.8222C55.7091 -18.6901 56.8912 -15.5579 58.0978 -12.438C36.3066 -51.4373 17.0747 -91.0703 0 -130.106V-121.636C20.1703 -75.7996 42.5222 -30.8164 67.7869 12.4118C68.2134 13.1553 68.6522 13.8621 69.0909 14.5934C71.6991 20.7601 74.3316 26.9025 77.0372 32.9474C48.7378 -7.8434 23.2781 -50.4379 0 -93.5321V-86.5122C11.2247 -65.9035 22.8759 -45.5752 35.0391 -25.5637C51.2606 1.13861 67.8478 26.2566 84.8494 49.9121C88.0791 56.8101 91.4062 63.6228 94.7822 70.3501C60.4987 30.0956 29.1647 -12.8036 0 -56.9215V-50.3038C31.1269 -3.56567 64.7034 41.7466 101.717 83.9633C105.727 91.6535 109.822 99.2462 114.002 106.693C74.0147 68.4611 36.4894 26.1225 0 -19.7869V-14.0346C15.2466 5.01415 30.7856 23.5632 46.6416 41.4419C70.7119 68.583 94.9772 93.5669 119.584 116.516C123.923 124.011 128.359 131.384 132.856 138.623C85.8975 102.305 41.9859 61.5144 0 17.6402V22.9295C17.1966 40.8691 34.6856 58.2725 52.455 74.9447C81.3516 102.037 110.029 126.351 138.889 148.227C143.569 155.515 148.322 162.717 153.185 169.749C154.148 171.151 155.123 172.516 156.098 173.918C102.046 140.927 50.7366 101.732 0 56.7004V60.2591C51.7116 105.571 103.984 144.875 158.876 177.866C164.166 185.313 169.552 192.613 175.037 199.73C115.586 171.444 58.0003 136.064 0 93.1159V97.6374C59.6091 141.609 118.804 177.622 180.058 206.165C186.067 213.794 192.185 221.241 198.437 228.504C131.491 205.19 66.4097 173.393 0 131.811V135.272C23.5219 149.848 46.8 163.168 70.005 175.368C113.917 198.426 157.633 217.475 202.239 232.892C208.711 240.289 215.292 247.492 221.995 254.463C148.395 236.779 75.5991 209.358 0 169.603V173.138C75.3187 212.332 149.272 240.021 225.335 257.924C231.879 264.652 238.534 271.172 245.286 277.497C164.946 266.187 84.5081 244.067 0 207.128V210.882C72.4059 242.3 143.886 263.774 216.925 276.376C227.723 278.241 238.57 279.898 249.442 281.397C256.181 287.576 263.031 293.597 269.978 299.398C182.63 295.083 94.1241 278.85 0 244.908V248.735C95.7694 283.152 185.737 299.288 274.597 303.224C281.738 309.087 289.002 314.741 296.363 320.226C201.447 323.821 104.508 314.181 0 283.335V286.699C34.8319 296.899 69.5175 304.967 104.191 310.951C141.18 317.337 178.206 321.384 215.438 323.138C243.982 324.479 272.305 324.43 300.483 323.248C307.893 328.647 315.388 333.827 323.005 338.811C220.764 350.828 115.184 348.512 0 321.335V324.869C17.9766 329.074 35.9044 332.718 53.8322 335.813C104.106 344.491 154.294 348.866 204.811 349.061C246.456 349.231 287.223 346.538 327.454 341.7C330.196 343.455 332.963 345.21 335.729 346.916C395.667 383.807 461.382 408.401 532.777 420.734C702.171 449.959 903.252 410.046 1133.29 301.067C1205.06 267.089 1273.93 238.595 1339.86 214.916C1350 211.454 1360.06 208.103 1370.05 204.885C1380.04 201.839 1389.97 198.914 1399.81 196.098C1409.81 193.442 1419.75 190.882 1429.61 188.457C1439.2 186.275 1448.73 184.228 1458.15 182.278C1467.23 180.584 1476.19 179.036 1485.08 177.562C1493.54 176.343 1501.9 175.234 1510.21 174.186C1518.53 173.345 1526.83 172.553 1535.03 171.87C1543.41 171.407 1551.72 170.98 1559.95 170.664C1568.24 170.578 1576.44 170.578 1584.56 170.664C1592.22 170.98 1599.83 171.358 1607.36 171.797C1614.65 172.431 1621.89 173.162 1629.04 173.93C1635.93 174.905 1642.8 175.904 1649.58 177.001C1656.76 178.402 1663.87 179.853 1670.91 181.376C1677.74 183.119 1684.5 184.898 1691.17 186.739C1713.16 193.637 1734.4 201.144 1754.99 209.114V195.05C1753.09 194.551 1751.19 194.063 1749.28 193.576C1751.2 194.002 1753.1 194.429 1754.99 194.855V190.663C1747.48 188.981 1739.94 187.372 1732.36 185.837C1739.99 187.129 1747.53 188.494 1754.99 189.919V185.739C1741.8 183.241 1728.5 180.986 1715.12 178.963C1728.65 180.596 1741.93 182.436 1754.99 184.496V180.328C1736.62 177.476 1718.08 175.075 1699.35 173.125C1718.34 174.551 1736.88 176.416 1754.99 178.671V174.49C1730.71 171.517 1706.1 169.311 1681.2 167.86C1706.54 168.628 1731.14 170.176 1754.99 172.394V168.226C1725.21 165.484 1694.99 163.887 1664.34 163.437C1695.63 163.083 1725.85 163.924 1754.99 165.752V161.584C1719.27 159.366 1682.91 158.769 1645.98 159.768C1683.83 157.806 1720.14 157.562 1754.99 158.757V154.564H1755ZM89.7975 50.9358C88.3228 47.7915 86.8603 44.6472 85.4222 41.4785C85.7025 41.9172 85.9828 42.3438 86.2631 42.8069C88.2009 46.6215 90.1753 50.3874 92.1497 54.1411C91.3575 53.0686 90.5775 51.9961 89.7975 50.9358ZM614.153 273.573C614.859 273.5 615.554 273.39 616.261 273.293C615.262 273.585 614.287 273.865 613.312 274.158C612.471 274.219 611.63 274.304 610.789 274.377C611.898 274.109 613.019 273.841 614.153 273.573ZM588.949 279.459C591.691 279.264 594.445 279.045 597.188 278.838C595.64 279.289 594.116 279.727 592.581 280.166C589.997 280.239 587.437 280.325 584.878 280.398C586.255 280.081 587.596 279.764 588.949 279.459ZM563.806 285.151C567.791 285.078 571.789 285.029 575.823 284.956C572.276 285.931 568.73 286.942 565.183 287.942C561.088 287.832 557.005 287.686 552.947 287.515C556.554 286.723 560.186 285.943 563.806 285.151ZM206.688 204.666C211.88 210.089 217.157 215.403 222.483 220.619C216.901 218.352 211.331 216.025 205.786 213.648C200.509 207.798 195.341 201.9 190.283 195.903C195.719 198.889 201.203 201.814 206.688 204.666ZM186.859 191.833C181.106 184.91 175.5 177.878 170.04 170.761C175.013 174.198 179.985 177.549 184.97 180.864C190.795 187.543 196.694 194.051 202.69 200.413C197.364 197.597 192.112 194.746 186.859 191.833ZM477.872 299.13C472.448 300.105 467.025 301.067 461.602 302.018C455.776 300.555 449.962 299.044 444.222 297.496C449.707 296.911 455.215 296.326 460.712 295.705C466.403 296.899 472.119 298.033 477.872 299.13ZM472.887 294.267C477.567 293.718 482.247 293.121 486.939 292.524C491.985 293.219 497.079 293.889 502.186 294.511C497.591 295.412 492.984 296.302 488.402 297.167C483.186 296.253 478.03 295.291 472.887 294.267ZM278.094 255.365C284.615 260.155 291.184 264.81 297.838 269.32C291.927 268.418 286.028 267.467 280.142 266.455C273.622 261.422 267.187 256.23 260.849 250.892C266.565 252.44 272.317 253.939 278.094 255.365ZM255.34 246.176C249.502 241.155 243.738 236.012 238.034 230.735C243.202 232.697 248.406 234.622 253.622 236.487C259.508 241.277 265.468 245.92 271.489 250.454C266.077 249.076 260.703 247.663 255.34 246.176ZM302.993 272.768C309.441 277.034 315.961 281.178 322.554 285.187C316.339 284.822 310.099 284.383 303.895 283.908C297.375 279.374 290.94 274.682 284.578 269.868C290.708 270.879 296.839 271.842 302.993 272.768ZM374.522 299.239C368.306 299.532 362.103 299.8 355.899 300.007C349.416 296.534 342.981 292.975 336.68 289.282C342.859 289.575 349.038 289.806 355.229 290.001C361.591 293.182 368.038 296.266 374.522 299.239ZM363.833 290.233C369.744 290.367 375.668 290.452 381.591 290.501C387.648 292.999 393.766 295.388 399.921 297.716C394.034 298.142 388.135 298.496 382.249 298.825C376.058 296.083 369.915 293.182 363.833 290.233ZM330.574 285.638C324.285 281.872 318.082 278.009 311.976 274.036C314.45 274.377 316.912 274.706 319.386 275.035C322.688 275.462 325.991 275.876 329.306 276.278C335.534 279.752 341.811 283.128 348.148 286.394C342.298 286.199 336.436 285.943 330.574 285.638ZM328.636 288.868C335.217 292.792 341.896 296.558 348.636 300.214C342.14 300.397 335.644 300.507 329.16 300.58C322.469 296.4 315.839 292.085 309.294 287.625C315.729 288.112 322.189 288.514 328.636 288.868ZM354.924 303.614C361.859 307.295 368.855 310.829 375.936 314.242C369.245 314.985 362.566 315.656 355.875 316.277C348.794 312.377 341.786 308.294 334.864 304.09C341.543 304.017 348.233 303.834 354.924 303.614ZM362.176 303.359C368.648 303.115 375.143 302.81 381.615 302.469C388.355 305.467 395.155 308.331 402.017 311.11C395.582 311.951 389.147 312.755 382.7 313.486C375.765 310.208 368.903 306.868 362.176 303.359ZM389.5 301.994C395.631 301.616 401.773 301.189 407.916 300.714C414.412 303.078 420.956 305.321 427.55 307.502C421.444 308.416 415.326 309.294 409.244 310.135C402.602 307.527 396.033 304.797 389.5 301.994ZM417.422 299.958C423.089 299.495 428.756 298.983 434.411 298.447C440.542 300.19 446.708 301.872 452.924 303.48C447.354 304.407 441.785 305.296 436.215 306.162C429.902 304.187 423.637 302.128 417.422 299.958ZM434.728 294.827C429.5 293.328 424.308 291.756 419.14 290.16C424.235 290.038 429.341 289.904 434.46 289.697C439.554 290.94 444.649 292.146 449.78 293.304C444.746 293.84 439.737 294.352 434.728 294.827ZM425.088 295.717C419.774 296.205 414.485 296.631 409.183 297.046C403.321 294.937 397.495 292.756 391.718 290.501C397.13 290.501 402.541 290.452 407.952 290.367C413.632 292.219 419.323 293.999 425.088 295.717ZM383.273 287.101C377.703 284.846 372.157 282.506 366.673 280.105C371.67 280.532 376.679 280.91 381.688 281.263C387.112 283.262 392.559 285.2 398.044 287.089C393.096 287.125 388.172 287.125 383.273 287.101ZM373.267 287.028C367.697 286.967 362.139 286.833 356.594 286.699C350.598 283.676 344.638 280.593 338.752 277.387C344.309 278.009 349.879 278.594 355.461 279.106C361.347 281.811 367.295 284.468 373.267 287.028ZM332.512 273.975C326.467 270.624 320.47 267.175 314.547 263.64C319.617 264.676 324.712 265.7 329.843 266.663C335.851 269.746 341.908 272.744 348.002 275.645C342.822 275.108 337.655 274.572 332.512 273.975ZM323.213 272.854C317.74 272.159 312.28 271.428 306.832 270.648C300.58 266.492 294.413 262.227 288.356 257.863C293.56 259.094 298.789 260.264 304.054 261.41C310.367 265.322 316.753 269.149 323.213 272.854ZM281.617 252.952C276.193 248.955 270.855 244.847 265.578 240.679C270.112 242.239 274.67 243.763 279.252 245.262C284.749 249.028 290.306 252.696 295.9 256.267C291.123 255.207 286.358 254.11 281.617 252.952ZM256.937 233.769C252.574 230.186 248.259 226.567 243.982 222.898C247.626 224.568 251.282 226.213 254.962 227.834C259.472 231.234 264.006 234.561 268.564 237.828C264.676 236.487 260.8 235.146 256.937 233.769ZM245.127 229.455C240.35 227.663 235.597 225.823 230.843 223.971C225.895 219.242 220.996 214.44 216.17 209.504C220.74 211.82 225.359 214.062 229.966 216.293C234.975 220.778 240.033 225.153 245.127 229.455ZM229.478 227.395C235.475 233.111 241.532 238.644 247.687 244.055C241.702 242.349 235.743 240.594 229.795 238.778C223.665 232.709 217.681 226.506 211.831 220.229C217.681 222.679 223.555 225.08 229.478 227.395ZM253.086 248.772C259.63 254.39 266.248 259.874 272.939 265.164C266.589 264.042 260.276 262.824 253.963 261.532C247.284 255.597 240.776 249.515 234.39 243.312C240.606 245.213 246.833 247.017 253.086 248.772ZM277.339 268.6C283.847 273.67 290.452 278.594 297.107 283.347C290.574 282.786 284.018 282.189 277.497 281.47C270.794 276.083 264.237 270.611 257.827 264.956C264.31 266.26 270.818 267.455 277.339 268.6ZM302.396 287.101C309.075 291.756 315.839 296.253 322.652 300.616C315.924 300.629 309.185 300.58 302.445 300.458C295.596 295.534 288.868 290.464 282.275 285.273C288.99 285.967 295.693 286.564 302.396 287.101ZM328.258 304.187C335.302 308.563 342.42 312.791 349.611 316.862C342.749 317.471 335.875 317.995 328.989 318.495C321.726 313.852 314.596 309.074 307.6 304.151C314.486 304.224 321.372 304.236 328.258 304.187ZM354.681 319.641C361.262 323.273 367.904 326.807 374.619 330.183C375.314 330.524 376.021 330.865 376.716 331.206C369.744 332.364 362.749 333.449 355.741 334.497C348.221 330.256 340.836 325.881 333.596 321.371C340.641 320.847 347.661 320.287 354.681 319.641ZM376.35 327.051C371.182 324.479 366.076 321.798 360.994 319.031C367.843 318.373 374.692 317.654 381.53 316.874C383.979 318.02 386.417 319.19 388.879 320.299C393.607 322.444 398.385 324.503 403.199 326.539C396.398 327.818 389.573 329.037 382.761 330.171C380.603 329.159 378.471 328.123 376.35 327.051ZM390.463 317.118C389.732 316.789 389.025 316.448 388.306 316.119C394.948 315.339 401.59 314.461 408.22 313.584C415.192 316.301 422.224 318.922 429.317 321.432C422.711 322.785 416.118 324.089 409.512 325.369C403.089 322.712 396.74 319.97 390.463 317.118ZM415.521 312.572C421.87 311.682 428.208 310.768 434.557 309.806C441.273 311.938 448.037 313.998 454.862 315.948C448.61 317.337 442.37 318.702 436.105 320.031C429.183 317.642 422.321 315.156 415.521 312.572ZM443.418 308.404C449.268 307.466 455.106 306.503 460.931 305.503C467.354 307.088 473.813 308.611 480.334 310.049C474.581 311.427 468.829 312.767 463.088 314.083C456.471 312.28 449.926 310.366 443.418 308.404ZM469.743 303.992C475.532 302.969 481.358 301.92 487.171 300.836C488.987 301.165 490.803 301.494 492.631 301.823C496.823 302.53 501.052 303.237 505.282 303.919C499.602 305.345 493.935 306.759 488.256 308.136C482.052 306.82 475.885 305.443 469.743 303.992ZM498.03 298.788C503.124 297.813 508.207 296.826 513.301 295.802C518.798 296.424 524.306 296.985 529.864 297.545C524.891 298.849 519.919 300.141 514.958 301.433C509.267 300.604 503.636 299.715 498.03 298.788ZM522.368 293.962C527.865 292.853 533.398 291.708 538.907 290.538C543.745 290.781 548.62 291.001 553.52 291.183C548.291 292.597 543.063 294.035 537.847 295.425C532.655 294.962 527.487 294.474 522.368 293.962ZM537.944 285.236C540.979 285.26 544.013 285.26 547.048 285.26C544.464 285.809 541.881 286.369 539.285 286.93C536.213 286.772 533.167 286.625 530.107 286.443C532.728 286.04 535.336 285.638 537.944 285.236ZM512.216 284.895C513.423 284.907 514.617 284.944 515.824 284.956C514.922 285.102 514.02 285.212 513.118 285.37C511.924 285.26 510.742 285.199 509.559 285.102C510.449 285.029 511.339 284.956 512.216 284.895ZM512.862 288.99C517.067 289.282 521.308 289.55 525.549 289.806C520.711 290.806 515.885 291.793 511.046 292.756C506.464 292.256 501.893 291.708 497.372 291.159C502.515 290.452 507.682 289.733 512.862 288.99ZM486.952 286.894C490.047 287.186 493.143 287.442 496.238 287.71C492.046 288.259 487.853 288.819 483.673 289.343C480.102 288.856 476.556 288.319 473.021 287.795C477.665 287.515 482.296 287.21 486.952 286.894ZM460.907 284.164C462.589 284.359 464.271 284.554 465.965 284.736C462.954 284.919 459.956 285.102 456.958 285.248C454.643 284.87 452.327 284.456 450.011 284.054C453.631 284.115 457.275 284.151 460.907 284.164ZM460.809 288.514C465.112 289.221 469.426 289.904 473.753 290.586C469.718 291.074 465.648 291.549 461.602 292C457.153 291.086 452.729 290.111 448.342 289.136C452.485 288.953 456.653 288.734 460.809 288.514ZM434.241 280.739C434.448 280.763 434.655 280.788 434.862 280.824C433.972 280.8 433.071 280.788 432.193 280.763C431.547 280.641 430.877 280.507 430.219 280.373C431.559 280.495 432.9 280.629 434.241 280.739ZM434.521 283.774C438.104 284.456 441.699 285.151 445.307 285.797C442.102 285.955 438.921 286.077 435.715 286.187C432.047 285.309 428.391 284.407 424.759 283.469C428.001 283.591 431.267 283.676 434.521 283.774ZM408.964 286.942C404.162 285.382 399.384 283.761 394.643 282.104C399.08 282.372 403.54 282.604 408.013 282.811C412.73 284.127 417.483 285.395 422.248 286.65C417.812 286.759 413.376 286.857 408.964 286.942ZM408.086 278.204C411.267 278.923 414.46 279.63 417.666 280.337C415.752 280.251 413.851 280.191 411.95 280.105C409.013 279.301 406.075 278.472 403.138 277.643C404.796 277.814 406.441 278.021 408.086 278.204ZM381.761 274.999C386.478 276.498 391.207 277.936 395.972 279.337C392.328 279.142 388.672 278.923 385.04 278.692C380.445 277.01 375.875 275.316 371.341 273.536C374.79 274.048 378.276 274.523 381.761 274.999ZM356.033 266.358C358.264 267.162 360.494 267.942 362.737 268.722C360.811 268.43 358.885 268.137 356.972 267.833C354.778 266.943 352.597 266.017 350.427 265.103C352.292 265.517 354.169 265.919 356.033 266.358ZM355.765 271.16C361.274 273.427 366.783 275.632 372.352 277.79C367.88 277.448 363.443 277.083 359.007 276.681C353.498 274.182 348.038 271.599 342.603 268.954C346.966 269.709 351.353 270.453 355.765 271.16ZM330.379 260.13C334.303 261.922 338.252 263.677 342.213 265.42C338.715 264.81 335.242 264.201 331.768 263.567C327.795 261.544 323.834 259.472 319.898 257.352C323.371 258.302 326.857 259.241 330.379 260.13ZM304.956 247.943C306.918 248.918 308.892 249.93 310.867 250.905C311.049 250.99 311.232 251.075 311.415 251.16C309.502 250.624 307.576 250.088 305.675 249.527C303.505 248.296 301.36 247.066 299.203 245.81C301.117 246.529 303.03 247.236 304.956 247.943ZM304.602 253.049C309.55 255.865 314.511 258.583 319.52 261.252C315.059 260.374 310.611 259.448 306.187 258.522C301.214 255.438 296.278 252.306 291.379 249.089C295.766 250.454 300.178 251.758 304.602 253.049ZM289.989 240.155C289.685 240.046 289.392 239.924 289.087 239.814C288.49 239.448 287.881 239.071 287.284 238.705C288.186 239.18 289.088 239.668 289.989 240.155ZM289.807 244.409C290.172 244.64 290.55 244.847 290.916 245.055C287.43 243.982 283.944 242.873 280.483 241.752C277.29 239.558 274.121 237.352 270.953 235.11C270.465 234.756 270.002 234.391 269.502 234.05C272.903 235.475 276.303 236.865 279.728 238.254C283.067 240.326 286.418 242.398 289.807 244.409ZM256.23 222.91C260.873 226.079 265.553 229.199 270.282 232.258C267.686 231.173 265.09 230.101 262.507 228.98C258.448 225.994 254.426 222.947 250.441 219.876C252.367 220.887 254.292 221.899 256.23 222.91ZM231.806 209.602C237.23 214.075 242.726 218.45 248.235 222.691C245.03 221.241 241.849 219.79 238.668 218.291C233.817 214.05 229.052 209.699 224.335 205.324C226.822 206.762 229.308 208.188 231.806 209.602ZM207.821 189.005C210.052 191.004 212.294 193.003 214.549 194.977C213.574 194.392 212.611 193.795 211.648 193.21C209.796 191.394 207.931 189.603 206.115 187.762C206.676 188.177 207.248 188.603 207.821 189.005ZM207.419 195.184C213.172 200.827 218.997 206.348 224.884 211.71C220.594 209.602 216.34 207.469 212.099 205.312C206.676 199.669 201.289 193.917 195.987 188.018C199.79 190.443 203.592 192.844 207.419 195.184ZM184.372 171.602C187.858 175.343 191.368 179.024 194.89 182.631C192.002 180.767 189.126 178.866 186.237 176.964C182.971 173.174 179.717 169.347 176.499 165.447C179.12 167.531 181.752 169.591 184.372 171.602ZM162.862 147.496C165.579 150.676 168.322 153.821 171.076 156.916C169.613 155.759 168.151 154.576 166.701 153.394C164.458 150.555 162.24 147.703 160.022 144.839C160.96 145.728 161.911 146.606 162.862 147.496ZM163.252 154.784C167.249 159.817 171.283 164.765 175.366 169.615C170.978 166.617 166.615 163.583 162.264 160.475C158.267 155.064 154.33 149.604 150.479 144.107C154.72 147.727 158.986 151.286 163.252 154.784ZM142.984 128.179C146.53 133.029 150.113 137.831 153.721 142.56C150.162 139.525 146.616 136.466 143.093 133.395C139.62 128.24 136.207 123.072 132.868 117.856C136.207 121.317 139.583 124.778 142.984 128.179ZM123.752 100.648C125.665 103.487 127.591 106.29 129.517 109.106C127.372 106.839 125.239 104.548 123.106 102.256C121.217 99.1608 119.34 96.0409 117.475 92.9088C119.559 95.5169 121.643 98.1006 123.752 100.648ZM105.617 82.8908C103.009 77.8697 100.437 72.812 97.9266 67.7299C99.7791 70.2039 101.644 72.6779 103.508 75.1032C106.36 80.2218 109.261 85.2674 112.186 90.2763C109.992 87.8267 107.786 85.3649 105.617 82.8908ZM112.771 96.37C115.696 99.5752 118.633 102.768 121.595 105.949C125.519 112.36 129.517 118.673 133.563 124.876C130.236 121.89 126.945 118.843 123.654 115.784C119.937 109.362 116.305 102.89 112.771 96.37ZM129.309 125.449C133.1 128.898 136.89 132.261 140.705 135.613C144.958 141.926 149.26 148.154 153.648 154.247C149.565 151.274 145.507 148.239 141.473 145.192C137.317 138.672 133.27 132.091 129.309 125.449ZM147.652 154.759C152.161 158.086 156.658 161.352 161.18 164.546C166.981 172.321 172.88 179.926 178.876 187.336C173.916 184.52 168.98 181.656 164.08 178.732C158.45 170.846 152.978 162.839 147.652 154.759ZM166.908 182.644C171.966 185.617 177.06 188.554 182.167 191.418C187.48 197.89 192.904 204.227 198.388 210.443C193.038 208.078 187.7 205.678 182.386 203.191C177.109 196.44 171.953 189.603 166.908 182.644ZM187.468 209.602C193.062 212.149 198.681 214.623 204.311 217.024C210.368 223.727 216.523 230.235 222.763 236.584C216.913 234.744 211.075 232.831 205.25 230.844C199.18 223.91 193.257 216.805 187.468 209.602ZM209.15 235.256C215.195 237.291 221.252 239.266 227.321 241.155C233.866 247.663 240.532 254 247.284 260.167C241.008 258.851 234.731 257.461 228.455 255.999C221.861 249.235 215.426 242.313 209.15 235.256ZM231.843 259.448C238.229 260.898 244.627 262.287 251.038 263.604C257.632 269.502 264.323 275.218 271.099 280.776C264.53 280.044 257.973 279.228 251.416 278.35C244.725 272.184 238.217 265.883 231.843 259.448ZM255.657 282.214C259.155 282.665 262.641 283.116 266.138 283.53C269.356 283.908 272.549 284.237 275.754 284.578C282.506 290.001 289.356 295.266 296.278 300.36C289.478 300.202 282.689 299.995 275.864 299.69C268.978 293.999 262.251 288.185 255.657 282.214ZM280.532 303.468C287.491 303.749 294.462 303.931 301.421 304.053C308.551 309.172 315.778 314.108 323.091 318.873C316.083 319.3 309.063 319.689 302.043 319.982C294.706 314.632 287.54 309.135 280.532 303.468ZM306.223 323.004C313.377 322.675 320.531 322.261 327.673 321.798C335.047 326.466 342.505 330.975 350.062 335.314C342.908 336.337 335.741 337.276 328.551 338.165C320.946 333.266 313.511 328.221 306.223 323.004ZM337.728 343.954C336.143 342.979 334.583 342.004 333.011 341.005C340.299 340.103 347.575 339.104 354.827 338.056C355.388 338.36 355.948 338.689 356.509 338.994C412.681 370.23 473.838 391.509 539.736 402.892C705.778 431.581 902.204 397.335 1126.44 300.312C803.071 452.311 537.725 467.009 337.728 343.954ZM1148.03 286.869C826.739 430.874 561.868 447.79 360.628 337.19C367.758 336.13 374.888 334.985 381.981 333.778C432.376 358.128 486.793 375.385 544.854 385.428C595.493 394.166 648.899 397.432 704.73 395.141C839.451 389.632 992.026 351.645 1158.29 282.311C1154.88 283.835 1151.47 285.334 1148.03 286.869ZM1164.52 275.84C849.822 408.559 588.693 427.657 388.062 332.754C395.033 331.56 402.017 330.292 408.976 328.988C452.034 346.648 497.823 359.7 546.158 368.061C601.307 377.567 659.697 380.979 720.939 378.213C857.573 372.058 1012.87 335.009 1182.53 268.064C1187.67 266.041 1192.79 264.079 1197.91 262.092C1186.79 266.565 1175.68 271.135 1164.52 275.84ZM1181.01 264.798C872.515 386.488 615.127 407.608 415.387 327.721C422.151 326.405 428.927 325.04 435.679 323.638C470.169 335.423 506.11 344.564 543.562 351.047C725.254 382.405 942.252 351.047 1198.92 257.035C1212.79 251.965 1226.51 247.114 1240.13 242.434C1220.52 249.552 1200.79 256.998 1181.01 264.798ZM1197.51 253.756C891.662 365.77 642.574 388.633 442.516 322.212C449 320.811 455.483 319.36 461.955 317.91C485.306 324.345 509.255 329.707 533.886 333.973C574.653 341.005 617.309 345.1 661.952 346.282C821.657 350.487 1002.67 317.715 1215.34 246.042C1237.62 238.547 1259.55 231.612 1281.16 225.165C1253.47 233.964 1225.59 243.47 1197.51 253.756ZM1214.02 242.703C914.477 343.637 669.057 368.061 470.316 315.997C476.275 314.62 482.235 313.194 488.195 311.756C498.091 313.84 508.073 315.777 518.164 317.52C570.936 326.624 626.693 331.133 685.876 331.097C842.534 331.048 1021.07 299.617 1231.71 235.049C1261.27 225.982 1290.21 217.914 1318.58 210.723C1284.04 220.217 1249.18 230.869 1214.02 242.703ZM1230.51 231.661C931.04 323.492 692.274 349.426 496.214 309.793C502.235 308.294 508.243 306.795 514.264 305.248C575.226 314.303 640.148 317.825 709.8 315.911C862.497 311.707 1038.58 281.665 1248.11 224.032C1284.49 214.026 1319.89 205.507 1354.41 198.365C1313.57 207.786 1272.27 218.864 1230.51 231.661ZM1247.01 220.644C951.783 301.86 716.503 328.988 524.05 302.713C529.376 301.323 534.702 299.922 540.028 298.484C600.344 303.797 664.657 304.529 733.748 300.738C880.62 292.695 1054.23 263.981 1264.54 213.027C1307.24 202.68 1348.61 194.392 1388.66 187.933C1342.11 196.586 1294.87 207.469 1247.01 220.644ZM1263.51 209.602C959.607 283.262 731.957 310.476 548.267 296.266C553.971 294.718 559.674 293.146 565.39 291.561C753.114 296.972 980.033 264.725 1280.92 202.034C1329.51 191.894 1376.27 184.472 1421.29 179.365C1369.58 186.58 1316.98 196.647 1263.51 209.602ZM1280.02 198.572C985.725 259.911 762.365 292.049 577.261 288.234C581.527 287.04 585.78 285.821 590.046 284.615C776.246 279.374 997.51 242.897 1297.27 191.028C1351.35 181.656 1403.12 175.636 1452.62 172.467C1396.24 177.635 1338.68 186.349 1280.02 198.572ZM1475.78 167.519C1417.37 170.322 1357.57 176.977 1296.53 187.543C1009.15 237.279 790.116 272.5 607.181 279.654C609.741 278.923 612.312 278.167 614.872 277.412C731.616 267.504 860.45 247.724 1011.22 224.568C1101.42 210.711 1203.67 195.002 1313.64 180.011C1370.68 172.248 1425.04 168.177 1476.77 167.251C1476.43 167.336 1476.11 167.422 1475.78 167.519ZM1490.63 163.449C1432.82 163.924 1373.58 168.263 1313.04 176.501C1203.03 191.504 1100.76 207.213 1010.53 221.058C867.445 243.044 743.62 262.044 631.447 272.513C634.189 271.708 636.943 270.904 639.685 270.087C704.535 260.983 772.7 249.552 845.91 237.267C985.762 213.794 1144.28 187.189 1330.01 168.982C1387.1 163.388 1441.37 161.523 1492.96 162.815C1492.19 163.022 1491.41 163.242 1490.63 163.449ZM1505.45 159.524C1448.28 157.635 1389.61 159.585 1329.57 165.472C1143.74 183.704 985.14 210.309 845.203 233.794C781.06 244.555 720.586 254.707 662.744 263.201C663.219 263.055 663.695 262.921 664.17 262.787C695.858 256.596 728.179 250.051 761.28 243.336C927.639 209.614 1116.14 171.383 1346.41 157.989C1403.44 154.674 1457.54 155.113 1508.87 158.647C1507.7 158.927 1506.58 159.232 1505.45 159.524ZM1520.07 155.783C1463.6 151.456 1405.55 150.993 1346.1 154.454C1115.56 167.86 926.896 206.116 760.439 239.887C743.584 243.312 726.96 246.7 710.495 249.99C712.981 249.369 715.479 248.747 717.966 248.126C900.169 202.692 1106.67 151.2 1362.77 146.959C1419.64 146.033 1473.49 148.836 1524.46 154.686C1523.01 155.039 1521.54 155.393 1520.07 155.783ZM1534.53 152.188C1478.78 145.387 1421.44 142.462 1362.62 143.425C1125.66 147.337 931.222 191.626 759.184 234.208C942.508 179.682 1135.85 129.41 1379.13 135.942C1435.72 137.478 1489.2 142.706 1539.76 150.945C1538.01 151.371 1536.3 151.761 1534.53 152.188Z" fill="#DFDFDF" fill-opacity="0.12"/>
</g>
<defs>
<clipPath id="clip0_1445_73354">
<rect width="1184" height="424" rx="16" fill="white"/>
</clipPath>
</defs>
</svg>
