<svg width="1387" height="381" viewBox="0 0 1387 381" fill="none" xmlns="http://www.w3.org/2000/svg">
<circle cx="1369" cy="18" r="18" fill="#F4F4EF"/>
<path d="M0 320.999C40 339.499 19.6865 329.124 37.3486 338.889C55.0108 348.654 67.856 377.949 90.3351 374.694C112.814 371.439 132.082 364.929 143.321 351.909C154.561 338.889 181.857 325.869 193.097 338.889C204.336 351.909 212.365 351.909 225.21 351.909C238.055 351.909 249.295 293.319 274.985 286.809C300.675 280.299 303.887 316.104 342.422 299.829C380.958 283.554 446.79 303.084 462.846 322.614C478.903 342.144 496.565 358.419 506.199 348.654C515.832 338.889 538.312 273.789 572.03 286.809C605.749 299.829 599.326 322.614 612.171 322.614C625.017 322.614 668.369 361.674 678.003 338.889C687.637 316.104 729.384 338.889 743.835 348.654C758.286 358.419 809.667 355.164 824.117 338.889C838.568 322.614 865.864 98.5342 886.738 114.809C907.611 131.084 968.626 173.399 1003.95 157.124C1039.27 140.849 1031.25 131.084 1056.94 131.084C1082.63 131.084 1114.74 183.164 1151.67 179.909C1188.6 176.654 1206.99 97.0291 1237.5 77.4991C1268.01 57.9691 1280.5 96.4991 1304.5 96.4991C1332 96.4991 1352.44 56.2191 1368.5 20.4141" stroke="#F4F4EF" stroke-width="12"/>
<circle cx="1369" cy="18" r="8" fill="#1E74A6"/>
</svg>
