<svg width="1387" height="381" viewBox="0 0 1387 381" fill="none" xmlns="http://www.w3.org/2000/svg">
<circle cx="1369" cy="18" r="18" fill="#F4F4EF"/>
<path d="M-0.000244141 321C39.9998 339.5 19.6862 329.125 37.3484 338.89C55.0105 348.655 67.8558 377.95 90.3349 374.695C112.814 371.44 132.082 364.93 143.321 351.91C154.561 338.89 181.857 325.87 193.096 338.89C204.336 351.91 212.364 351.91 225.21 351.91C238.055 351.91 249.294 293.32 274.985 286.81C300.675 280.3 303.886 316.105 342.422 299.83C380.958 283.555 446.789 303.085 462.846 322.615C478.902 342.145 496.564 358.42 506.198 348.655C515.832 338.89 538.311 273.79 572.03 286.81C605.749 299.83 599.326 322.615 612.171 322.615C625.016 322.615 668.369 361.675 678.003 338.89C687.637 316.105 729.384 338.89 743.835 348.655C758.285 358.42 809.666 355.165 824.117 338.89C838.568 322.615 865.864 98.5352 886.737 114.81C907.611 131.085 968.626 173.4 1003.95 157.125C1039.27 140.85 1031.25 131.085 1056.94 131.085C1082.63 131.085 1114.74 183.165 1151.67 179.91C1188.6 176.655 1206.99 97.03 1237.5 77.5C1268.01 57.97 1280.5 96.5 1304.5 96.5C1332 96.5 1352.44 56.22 1368.5 20.415" stroke="#F4F4EF" stroke-width="12"/>
<circle cx="1369" cy="18" r="8" fill="#296F47"/>
</svg>
