<svg width="1440" height="953" viewBox="0 0 1440 953" fill="none" xmlns="http://www.w3.org/2000/svg">
<mask id="mask0_1091_95092" style="mask-type:luminance" maskUnits="userSpaceOnUse" x="0" y="0" width="1442" height="770">
<path d="M1442 0H0V770H1442V0Z" fill="white"/>
</mask>
<g mask="url(#mask0_1091_95092)">
<path d="M-125.093 321.09C-97.9354 356.221 -52.7528 381.727 -2.40294 390.871C55.2771 401.362 105.266 387.117 152.732 360.649C189.623 340.051 225.433 315.989 269.174 307.422C306.065 300.204 345.48 305.016 381.169 315.507C419.983 326.961 453.509 350.35 492.684 359.301C533.901 368.734 576.2 368.637 615.134 353.045C655.63 336.875 686.152 307.615 707.061 275.564C729.412 241.395 735.421 200.874 760.415 168.726C786.852 134.654 810.164 100.966 845.974 72.0911C878.779 45.6223 922.88 35.8049 956.527 10.6836C990.654 -14.9189 973.831 -62.8514 953.523 -91.0527C923.001 -133.595 871.209 -164.684 814.49 -174.598L-212.094 8.46986L-125.093 321.09Z" fill="#D4ECF8" fill-opacity="0.32"/>
</g>
<mask id="mask1_1091_95092" style="mask-type:luminance" maskUnits="userSpaceOnUse" x="0" y="0" width="1442" height="969">
<path d="M1442 0H0V969H1442V0Z" fill="white"/>
</mask>
<g mask="url(#mask1_1091_95092)">
<path d="M1025.14 949.41C930.21 959.709 832.875 941.036 761.616 898.879C690.358 856.721 646.016 791.56 641.69 722.645C638.325 669.804 661.157 611.572 718.717 575.96C820.138 513.109 980.32 543.427 1066.96 461.134C1106.61 423.5 1112.02 373.065 1123.8 326.769C1142.54 252.656 1195.42 190.479 1277.97 152.652C1345.39 121.756 1427.34 109.917 1502.08 120.216L1766.21 749.691L1025.14 949.41Z" fill="#D4ECF8" fill-opacity="0.32"/>
</g>
</svg>
