<svg width="16" height="16" viewBox="0 0 16 16" fill="none" xmlns="http://www.w3.org/2000/svg">
<path fill-rule="evenodd" clip-rule="evenodd" d="M0.866117 0.866117C1.35427 0.377961 2.14573 0.377961 2.63388 0.866117L8 6.23223L13.3661 0.866117C13.8543 0.377962 14.6457 0.377962 15.1339 0.866117C15.622 1.35427 15.622 2.14573 15.1339 2.63388L9.76777 8L15.1339 13.3661C15.622 13.8543 15.622 14.6457 15.1339 15.1339C14.6457 15.622 13.8543 15.622 13.3661 15.1339L8 9.76777L2.63388 15.1339C2.14573 15.622 1.35427 15.622 0.866116 15.1339C0.377961 14.6457 0.377961 13.8543 0.866117 13.3661L6.23223 8L0.866117 2.63388C0.377961 2.14573 0.377961 1.35427 0.866117 0.866117Z" fill="#FCFCFC"/>
</svg>
