<svg width="20" height="21" viewBox="0 0 20 21" fill="none" xmlns="http://www.w3.org/2000/svg">
<path fill-rule="evenodd" clip-rule="evenodd" d="M1.04102 3.00033C1.04102 2.54009 1.41411 2.16699 1.87435 2.16699H18.1243C18.5846 2.16699 18.9577 2.54009 18.9577 3.00033C18.9577 3.46056 18.5846 3.83366 18.1243 3.83366H17.7077V12.3753C17.7077 13.8711 16.4951 15.0837 14.9993 15.0837H14.2805L15.1649 17.7368C15.3105 18.1734 15.0745 18.6454 14.6379 18.7909C14.2013 18.9364 13.7293 18.7005 13.5838 18.2638L13.357 17.5837H6.64165L6.41492 18.2638C6.26938 18.7005 5.79745 18.9364 5.36083 18.7909C4.92421 18.6454 4.68824 18.1734 4.83378 17.7368L5.71816 15.0837H4.99935C3.50358 15.0837 2.29102 13.8711 2.29102 12.3753V3.83366H1.87435C1.41411 3.83366 1.04102 3.46056 1.04102 3.00033ZM3.95768 3.83366V12.3753C3.95768 12.9506 4.42405 13.417 4.99935 13.417H14.9993C15.5746 13.417 16.041 12.9506 16.041 12.3753V3.83366H3.95768ZM7.47498 15.0837L7.1972 15.917H12.8015L12.5237 15.0837H7.47498ZM12.4993 5.29199C12.9596 5.29199 13.3327 5.66509 13.3327 6.12533V11.1253C13.3327 11.5856 12.9596 11.9587 12.4993 11.9587C12.0391 11.9587 11.666 11.5856 11.666 11.1253V6.12533C11.666 5.66509 12.0391 5.29199 12.4993 5.29199ZM9.99935 7.16699C10.4596 7.16699 10.8327 7.54009 10.8327 8.00033V11.1253C10.8327 11.5856 10.4596 11.9587 9.99935 11.9587C9.53911 11.9587 9.16602 11.5856 9.16602 11.1253V8.00033C9.16602 7.54009 9.53911 7.16699 9.99935 7.16699ZM7.49935 9.04199C7.95959 9.04199 8.33268 9.41509 8.33268 9.87533V11.1253C8.33268 11.5856 7.95959 11.9587 7.49935 11.9587C7.03911 11.9587 6.66602 11.5856 6.66602 11.1253V9.87533C6.66602 9.41509 7.03911 9.04199 7.49935 9.04199Z" fill="#1E74A6"/>
</svg>
