<svg width="16" height="16" viewBox="0 0 16 16" fill="none" xmlns="http://www.w3.org/2000/svg">
<path d="M8 10C9.10457 10 10 9.10457 10 8C10 6.89543 9.10457 6 8 6C6.89543 6 6 6.89543 6 8C6 9.10457 6.89543 10 8 10Z" fill="#1E74A6"/>
<path d="M15.3388 7.45625C14.5119 6.1775 13.4391 5.09125 12.2366 4.31469C10.9063 3.45469 9.43751 3 7.98939 3C6.66064 3 5.35408 3.37969 4.10595 4.12844C2.83314 4.89188 1.68001 6.00719 0.67845 7.44312C0.565383 7.60541 0.503113 7.79764 0.499551 7.9954C0.49599 8.19315 0.551299 8.3875 0.65845 8.55375C1.48376 9.84531 2.54595 10.9331 3.7297 11.6991C5.06251 12.5625 6.49689 13 7.98939 13C9.44908 13 10.921 12.5491 12.2456 11.6962C13.4475 10.9222 14.5181 9.83187 15.3419 8.5425C15.4453 8.38012 15.5 8.19146 15.4995 7.99892C15.4989 7.80638 15.4432 7.61804 15.3388 7.45625ZM8.00001 11C7.40667 11 6.82665 10.8241 6.3333 10.4944C5.83995 10.1648 5.45544 9.69623 5.22837 9.14805C5.00131 8.59987 4.9419 7.99667 5.05766 7.41473C5.17341 6.83279 5.45914 6.29824 5.87869 5.87868C6.29825 5.45912 6.8328 5.1734 7.41474 5.05764C7.99669 4.94189 8.59989 5.0013 9.14806 5.22836C9.69624 5.45542 10.1648 5.83994 10.4944 6.33329C10.8241 6.82664 11 7.40666 11 8C10.9991 8.79537 10.6827 9.5579 10.1203 10.1203C9.55792 10.6827 8.79538 10.9991 8.00001 11Z" fill="#1E74A6"/>
</svg>
