<svg width="13" height="14" viewBox="0 0 13 14" fill="none" xmlns="http://www.w3.org/2000/svg">
<path d="M9.46184 2.07647H8.86184V2.11871L8.86776 2.16053L9.46184 2.07647ZM7.01568 3.61493C7.01568 3.9463 7.28431 4.21493 7.61568 4.21493C7.94706 4.21493 8.21568 3.9463 8.21568 3.61493H7.01568ZM11.3234 3.30724V10.6919H12.5234V3.30724H11.3234ZM9.46184 2.67647H10.6926V1.47647H9.46184V2.67647ZM11.3234 10.6919C11.3234 10.9301 11.2293 11.0558 11.085 11.1484C10.9108 11.2602 10.6496 11.3226 10.3849 11.3226V12.5226C10.7999 12.5226 11.308 12.4312 11.7331 12.1583C12.1881 11.8664 12.5234 11.3767 12.5234 10.6919H11.3234ZM12.5234 3.30724C12.5234 2.29614 11.7037 1.47647 10.6926 1.47647V2.67647C11.041 2.67647 11.3234 2.95888 11.3234 3.30724H12.5234ZM7.0003 1.4457H8.23107V0.245703H7.0003V1.4457ZM8.23107 1.4457C8.57943 1.4457 8.86184 1.72811 8.86184 2.07647H10.0618C10.0618 1.06537 9.24218 0.245703 8.23107 0.245703V1.4457ZM7.0003 0.245703C5.98919 0.245703 5.16953 1.06537 5.16953 2.07647H6.36953C6.36953 1.72811 6.65194 1.4457 7.0003 1.4457V0.245703ZM9.46184 2.07647C8.86776 2.16053 8.86771 2.16021 8.86767 2.1599C8.86765 2.1598 8.86761 2.15948 8.86758 2.15929C8.86753 2.15889 8.86747 2.1585 8.86742 2.15814C8.86732 2.15741 8.86723 2.15674 8.86715 2.15614C8.86699 2.15494 8.86687 2.154 8.86679 2.1533C8.86662 2.15192 8.86658 2.15152 8.86664 2.15203C8.86675 2.15309 8.8672 2.15768 8.86765 2.16527C8.86858 2.18072 8.86941 2.2068 8.86781 2.23956C8.86444 2.30872 8.85128 2.38686 8.82195 2.45519C8.79524 2.51742 8.75708 2.56855 8.69385 2.6088C8.62864 2.65032 8.49404 2.70724 8.23107 2.70724V3.90724C8.67056 3.90724 9.04104 3.81032 9.3383 3.62107C9.63756 3.43055 9.81929 3.17399 9.92465 2.92852C10.0274 2.68916 10.0585 2.45961 10.0664 2.298C10.0704 2.21537 10.0686 2.1453 10.0655 2.09344C10.0639 2.06738 10.062 2.04553 10.0603 2.02856C10.0594 2.02006 10.0585 2.01275 10.0578 2.0067C10.0574 2.00368 10.0571 2.00097 10.0568 1.99859C10.0566 1.9974 10.0565 1.99628 10.0563 1.99525C10.0562 1.99474 10.0562 1.99425 10.0561 1.99377C10.0561 1.99353 10.056 1.99319 10.056 1.99308C10.056 1.99274 10.0559 1.99241 9.46184 2.07647ZM8.23107 2.70724C7.83089 2.70724 7.49747 2.80769 7.26834 3.03682C7.15658 3.14858 7.09165 3.27045 7.05609 3.37712C7.03866 3.42941 7.02862 3.47692 7.02292 3.51686C7.02006 3.53688 7.01825 3.55521 7.01716 3.57157C7.01662 3.57975 7.01625 3.58748 7.01602 3.59471C7.0159 3.59832 7.01582 3.60182 7.01576 3.60519C7.01574 3.60687 7.01572 3.60853 7.0157 3.61015C7.0157 3.61097 7.01569 3.61177 7.01569 3.61257C7.01569 3.61296 7.01569 3.61356 7.01569 3.61376C7.01569 3.61435 7.01568 3.61493 7.61568 3.61493C8.21568 3.61493 8.21568 3.61552 8.21568 3.6161C8.21568 3.6163 8.21568 3.61688 8.21568 3.61727C8.21568 3.61805 8.21567 3.61883 8.21567 3.6196C8.21565 3.62115 8.21564 3.6227 8.21561 3.62423C8.21556 3.62731 8.21549 3.63036 8.21539 3.6334C8.2152 3.63946 8.2149 3.64546 8.21451 3.65139C8.21372 3.66324 8.21251 3.67496 8.21086 3.68657C8.20755 3.70968 8.20233 3.73315 8.19451 3.75659C8.17818 3.80557 8.15171 3.85052 8.11687 3.88535C8.04159 3.96064 8.01586 3.90724 8.23107 3.90724V2.70724Z" fill="#717171"/>
<path d="M3.92345 3.30694H2.69268C2.01295 3.30694 1.46191 3.85798 1.46191 4.53771V11.9223C1.46191 12.6021 2.01295 13.1531 2.69268 13.1531H8.84653C9.52626 13.1531 10.0773 12.6021 10.0773 11.9223V4.53771C10.0773 3.85798 9.52626 3.30694 8.84653 3.30694H7.61576M3.92345 3.30694C3.92345 3.98668 4.47449 4.53771 5.15422 4.53771H6.38499C7.06473 4.53771 7.61576 3.98668 7.61576 3.30694M3.92345 3.30694C3.92345 2.62721 4.47449 2.07617 5.15422 2.07617H6.38499C7.06473 2.07617 7.61576 2.62721 7.61576 3.30694" stroke="#717171" stroke-width="1.2" stroke-linecap="round"/>
</svg>
