<svg width="14" height="14" viewBox="0 0 14 14" fill="none" xmlns="http://www.w3.org/2000/svg">
<path d="M11.6667 0.333008H2.33334C1.80291 0.333008 1.2942 0.543722 0.91913 0.918794C0.544057 1.29387 0.333344 1.80257 0.333344 2.33301V3.11301C0.333248 3.3883 0.389988 3.66065 0.50001 3.91301V3.95301C0.594197 4.16699 0.727605 4.36145 0.893344 4.52634L5.00001 8.60634V12.9997C4.99978 13.113 5.02843 13.2245 5.08326 13.3236C5.13808 13.4228 5.21727 13.5063 5.31334 13.5663C5.41944 13.6321 5.54186 13.6667 5.66668 13.6663C5.77104 13.6657 5.8738 13.6406 5.96668 13.593L8.63334 12.2597C8.74329 12.2043 8.83574 12.1195 8.90046 12.0148C8.96518 11.9101 8.99964 11.7895 9.00001 11.6663V8.60634L13.08 4.52634C13.2457 4.36145 13.3792 4.16699 13.4733 3.95301V3.91301C13.5926 3.66263 13.6584 3.39019 13.6667 3.11301V2.33301C13.6667 1.80257 13.456 1.29387 13.0809 0.918794C12.7058 0.543722 12.1971 0.333008 11.6667 0.333008ZM7.86001 7.85967C7.79822 7.92197 7.74934 7.99584 7.71616 8.07707C7.68299 8.15829 7.66617 8.24527 7.66668 8.33301V11.253L6.33334 11.9197V8.33301C6.33385 8.24527 6.31703 8.15829 6.28386 8.07707C6.25068 7.99584 6.2018 7.92197 6.14001 7.85967L2.60668 4.33301H11.3933L7.86001 7.85967ZM12.3333 2.99967H1.66668V2.33301C1.66668 2.1562 1.73692 1.98663 1.86194 1.8616C1.98696 1.73658 2.15653 1.66634 2.33334 1.66634H11.6667C11.8435 1.66634 12.0131 1.73658 12.1381 1.8616C12.2631 1.98663 12.3333 2.1562 12.3333 2.33301V2.99967Z" fill="#2671D9"/>
</svg>
