<svg width="24" height="24" viewBox="0 0 24 24" fill="none" xmlns="http://www.w3.org/2000/svg">
<path fill-rule="evenodd" clip-rule="evenodd" d="M12 0C5.3726 0 0 5.3726 0 12C0 18.6274 5.3726 24 12 24C18.6274 24 24 18.6274 24 12C24 5.3726 18.6274 0 12 0ZM11.982 13.0096L7.49935 9.75575V16.615H6.75045C6.3332 16.615 6.00155 16.2833 6.00155 15.8661V8.281C6.00155 8.24925 6.0035 8.21945 6.0072 8.19155C6.0208 8.07255 6.0642 7.9561 6.14065 7.85305C6.3867 7.5214 6.86815 7.4465 7.2105 7.69255L11.9927 11.1695L16.8069 7.6498C17.1385 7.4037 17.6093 7.4786 17.8554 7.82095C17.9862 7.99725 18.0263 8.2128 17.9837 8.41305V15.8768C17.9837 16.2833 17.6521 16.615 17.2348 16.615H16.486V9.7394L11.982 13.0096Z" fill="#FBFCF3"/>
</svg>
