<svg width="12" height="12" viewBox="0 0 12 12" fill="none" xmlns="http://www.w3.org/2000/svg">
    <path d="M0.400391 6.35039C0.400391 5.77049 0.870492 5.30039 1.45039 5.30039C2.03029 5.30039 2.50039 5.77049 2.50039 6.35039V10.5504C2.50039 11.1303 2.03029 11.6004 1.45039 11.6004C0.870492 11.6004 0.400391 11.1303 0.400391 10.5504V6.35039Z" fill="white"/>
    <path d="M3.20039 6.23372V10.0351C3.20039 10.5654 3.49999 11.0502 3.97429 11.2873L4.00918 11.3048C4.39798 11.4992 4.82669 11.6004 5.26138 11.6004H9.05267C9.72002 11.6004 10.2946 11.1293 10.4255 10.475L11.2655 6.27495C11.4387 5.40865 10.7761 4.60039 9.89267 4.60039H7.40039V1.80039C7.40039 1.02719 6.77359 0.400391 6.00039 0.400391C5.61379 0.400391 5.30039 0.713791 5.30039 1.10039V1.56706C5.30039 2.17289 5.10389 2.76239 4.74039 3.24706L3.76039 4.55372C3.39689 5.03839 3.20039 5.62789 3.20039 6.23372Z" fill="white"/>
</svg>
