<svg width="17" height="22" viewBox="0 0 17 22" fill="none" xmlns="http://www.w3.org/2000/svg">
    <path fill-rule="evenodd" clip-rule="evenodd" d="M8.49984 2.25C6.98106 2.25 5.74984 3.48122 5.74984 5C5.74984 6.51878 6.98106 7.75 8.49984 7.75C10.0186 7.75 11.2498 6.51878 11.2498 5C11.2498 3.48122 10.0186 2.25 8.49984 2.25ZM3.74984 5C3.74984 2.37665 5.87649 0.25 8.49984 0.25C11.1232 0.25 13.2498 2.37665 13.2498 5C13.2498 7.62335 11.1232 9.75 8.49984 9.75C5.87649 9.75 3.74984 7.62335 3.74984 5ZM2.04474 18.4818C4.03404 19.299 6.21332 19.75 8.50016 19.75C10.7868 19.75 12.9658 19.2991 14.955 18.482C14.5751 15.2543 11.8299 12.75 8.49984 12.75C5.16991 12.75 2.42468 15.2541 2.04474 18.4818ZM0.00112581 19.101C0.080811 14.4751 3.8552 10.75 8.49984 10.75C13.1446 10.75 16.9191 14.4753 16.9986 19.1014C17.0054 19.4984 16.7767 19.8618 16.4158 20.0274C14.0048 21.1337 11.3231 21.75 8.50016 21.75C5.67699 21.75 2.99506 21.1336 0.583893 20.0271C0.223 19.8615 -0.00571329 19.498 0.00112581 19.101Z" fill="#333333"/>
</svg>
