<svg width="32" height="32" viewBox="0 0 32 32" fill="none" xmlns="http://www.w3.org/2000/svg">
<path d="M12.0001 29.3332H20.0001C26.6667 29.3332 29.3334 26.6665 29.3334 19.9998V11.9998C29.3334 5.33317 26.6667 2.6665 20.0001 2.6665H12.0001C5.33341 2.6665 2.66675 5.33317 2.66675 11.9998V19.9998C2.66675 26.6665 5.33341 29.3332 12.0001 29.3332Z" stroke="#333333" stroke-width="2.5" stroke-linecap="round" stroke-linejoin="round"/>
<path d="M9.33325 16.2129H12.9066C13.8533 16.2129 14.4933 16.9329 14.4933 17.7996V19.7863C14.4933 20.653 13.8533 21.373 12.9066 21.373H10.9199C10.0533 21.373 9.33325 20.653 9.33325 19.7863V16.2129" stroke="#333333" stroke-width="2.5" stroke-linecap="round" stroke-linejoin="round"/>
<path d="M9.33325 16.2131C9.33325 12.4931 10.0266 11.8665 12.1199 10.6265" stroke="#333333" stroke-width="2.5" stroke-linecap="round" stroke-linejoin="round"/>
<path d="M17.52 16.2129H21.0934C22.04 16.2129 22.68 16.9329 22.68 17.7996V19.7863C22.68 20.653 22.04 21.373 21.0934 21.373H19.1067C18.24 21.373 17.52 20.653 17.52 19.7863V16.2129" stroke="#333333" stroke-width="2.5" stroke-linecap="round" stroke-linejoin="round"/>
<path d="M17.52 16.2131C17.52 12.4931 18.2134 11.8665 20.3067 10.6265" stroke="#333333" stroke-width="2.5" stroke-linecap="round" stroke-linejoin="round"/>
</svg>
