<svg width="200" height="160" viewBox="0 0 200 160" fill="none" xmlns="http://www.w3.org/2000/svg">
<circle cx="100" cy="80" r="57" fill="#70D14E" fill-opacity="0.2"/>
<circle cx="100" cy="80" r="47" fill="#70D14E"/>
<path fill-rule="evenodd" clip-rule="evenodd" d="M126.837 61.06C125.312 59.6236 122.867 59.6504 121.376 61.12L91.1071 90.9558L78.6239 78.6513C77.133 77.1817 74.6878 77.1549 73.1625 78.5913C71.6372 80.0277 71.6093 82.3836 73.1002 83.8531L88.3452 98.88C89.0719 99.5962 90.0675 100 91.1071 100C92.1466 100 93.1423 99.5962 93.8689 98.88L126.9 66.3218C128.391 64.8522 128.363 62.4964 126.837 61.06Z" fill="white"/>
<path fill-rule="evenodd" clip-rule="evenodd" d="M49.6564 33.7146C50.4777 33.7146 51.1435 33.0721 51.1435 32.2796C51.1435 31.487 50.4777 30.8445 49.6564 30.8445C48.8351 30.8445 48.1693 31.487 48.1693 32.2796C48.1693 33.0721 48.8351 33.7146 49.6564 33.7146ZM49.6564 34.4321C50.8883 34.4321 51.887 33.4684 51.887 32.2796C51.887 31.0907 50.8883 30.127 49.6564 30.127C48.4245 30.127 47.4258 31.0907 47.4258 32.2796C47.4258 33.4684 48.4245 34.4321 49.6564 34.4321Z" fill="#70D14E"/>
<path fill-rule="evenodd" clip-rule="evenodd" d="M32.5548 78.9197C33.3761 78.9197 34.0419 78.2772 34.0419 77.4846C34.0419 76.6921 33.3761 76.0496 32.5548 76.0496C31.7335 76.0496 31.0678 76.6921 31.0678 77.4846C31.0678 78.2772 31.7335 78.9197 32.5548 78.9197ZM32.5548 79.6372C33.7868 79.6372 34.7855 78.6735 34.7855 77.4846C34.7855 76.2958 33.7868 75.332 32.5548 75.332C31.3229 75.332 30.3242 76.2958 30.3242 77.4846C30.3242 78.6735 31.3229 79.6372 32.5548 79.6372Z" fill="#70D14E"/>
<path fill-rule="evenodd" clip-rule="evenodd" d="M8.89077 87.033C9.71207 87.033 10.3779 86.3905 10.3779 85.5979C10.3779 84.8053 9.71207 84.1628 8.89077 84.1628C8.06948 84.1628 7.4037 84.8053 7.4037 85.5979C7.4037 86.3905 8.06948 87.033 8.89077 87.033ZM8.89077 87.7505C10.1227 87.7505 11.1214 86.7867 11.1214 85.5979C11.1214 84.4091 10.1227 83.4453 8.89077 83.4453C7.65884 83.4453 6.66016 84.4091 6.66016 85.5979C6.66016 86.7867 7.65884 87.7505 8.89077 87.7505Z" fill="#70D14E"/>
<path fill-rule="evenodd" clip-rule="evenodd" d="M73.4491 22.95C75.0917 22.95 76.4233 21.665 76.4233 20.0799C76.4233 18.4947 75.0917 17.2097 73.4491 17.2097C71.8066 17.2097 70.475 18.4947 70.475 20.0799C70.475 21.665 71.8066 22.95 73.4491 22.95ZM73.4491 23.6675C75.5024 23.6675 77.1668 22.0613 77.1668 20.0799C77.1668 18.0984 75.5024 16.4922 73.4491 16.4922C71.3959 16.4922 69.7314 18.0984 69.7314 20.0799C69.7314 22.0613 71.3959 23.6675 73.4491 23.6675Z" fill="#70D14E"/>
<path fill-rule="evenodd" clip-rule="evenodd" d="M36.2726 119.818C37.0939 119.818 37.7597 119.176 37.7597 118.383C37.7597 117.59 37.0939 116.948 36.2726 116.948C35.4513 116.948 34.7855 117.59 34.7855 118.383C34.7855 119.176 35.4513 119.818 36.2726 119.818ZM36.2726 120.536C37.5045 120.536 38.5032 119.572 38.5032 118.383C38.5032 117.194 37.5045 116.23 36.2726 116.23C35.0407 116.23 34.042 117.194 34.042 118.383C34.042 119.572 35.0407 120.536 36.2726 120.536Z" fill="#70D14E"/>
<path fill-rule="evenodd" clip-rule="evenodd" d="M37.7597 24.3875C39.4023 24.3875 40.7339 23.1025 40.7339 21.5174C40.7339 19.9322 39.4023 18.6472 37.7597 18.6472C36.1171 18.6472 34.7855 19.9322 34.7855 21.5174C34.7855 23.1025 36.1171 24.3875 37.7597 24.3875ZM37.7597 25.105C39.8129 25.105 41.4774 23.4988 41.4774 21.5174C41.4774 19.5359 39.8129 17.9297 37.7597 17.9297C35.7065 17.9297 34.042 19.5359 34.042 21.5174C34.042 23.4988 35.7065 25.105 37.7597 25.105Z" fill="#70D14E"/>
<path fill-rule="evenodd" clip-rule="evenodd" d="M15.2353 50.5242C16.8779 50.5242 18.2094 49.2392 18.2094 47.6541C18.2094 46.0689 16.8779 44.7839 15.2353 44.7839C13.5927 44.7839 12.2611 46.0689 12.2611 47.6541C12.2611 49.2392 13.5927 50.5242 15.2353 50.5242ZM15.2353 51.2417C17.2885 51.2417 18.953 49.6355 18.953 47.6541C18.953 45.6727 17.2885 44.0664 15.2353 44.0664C13.182 44.0664 11.5176 45.6727 11.5176 47.6541C11.5176 49.6355 13.182 51.2417 15.2353 51.2417Z" fill="#70D14E"/>
<path fill-rule="evenodd" clip-rule="evenodd" d="M122.523 24.3875C124.166 24.3875 125.498 23.1025 125.498 21.5174C125.498 19.9322 124.166 18.6472 122.523 18.6472C120.881 18.6472 119.549 19.9322 119.549 21.5174C119.549 23.1025 120.881 24.3875 122.523 24.3875ZM122.523 25.105C124.577 25.105 126.241 23.4988 126.241 21.5174C126.241 19.5359 124.577 17.9297 122.523 17.9297C120.47 17.9297 118.806 19.5359 118.806 21.5174C118.806 23.4988 120.47 25.105 122.523 25.105Z" fill="#70D14E"/>
<path fill-rule="evenodd" clip-rule="evenodd" d="M158.957 50.9344C160.6 50.9344 161.931 49.6494 161.931 48.0642C161.931 46.4791 160.6 45.1941 158.957 45.1941C157.314 45.1941 155.983 46.4791 155.983 48.0642C155.983 49.6494 157.314 50.9344 158.957 50.9344ZM158.957 51.6519C161.01 51.6519 162.675 50.0456 162.675 48.0642C162.675 46.0828 161.01 44.4766 158.957 44.4766C156.904 44.4766 155.239 46.0828 155.239 48.0642C155.239 50.0456 156.904 51.6519 158.957 51.6519Z" fill="#70D14E"/>
<path fill-rule="evenodd" clip-rule="evenodd" d="M156.11 22.3953C157.753 22.3953 159.084 21.1103 159.084 19.5252C159.084 17.94 157.753 16.655 156.11 16.655C154.468 16.655 153.136 17.94 153.136 19.5252C153.136 21.1103 154.468 22.3953 156.11 22.3953ZM156.11 23.1128C158.164 23.1128 159.828 21.5066 159.828 19.5252C159.828 17.5438 158.164 15.9375 156.11 15.9375C154.057 15.9375 152.393 17.5438 152.393 19.5252C152.393 21.5066 154.057 23.1128 156.11 23.1128Z" fill="#70D14E"/>
<ellipse cx="139.624" cy="134.887" rx="2.23063" ry="2.15259" fill="#70D14E"/>
<ellipse cx="168.227" cy="141.852" rx="2.23063" ry="2.15259" fill="#70D14E"/>
<path fill-rule="evenodd" clip-rule="evenodd" d="M112.857 148.52C114.5 148.52 115.831 147.235 115.831 145.65C115.831 144.065 114.5 142.78 112.857 142.78C111.215 142.78 109.883 144.065 109.883 145.65C109.883 147.235 111.215 148.52 112.857 148.52ZM112.857 149.238C114.911 149.238 116.575 147.632 116.575 145.65C116.575 143.669 114.911 142.062 112.857 142.062C110.804 142.062 109.14 143.669 109.14 145.65C109.14 147.632 110.804 149.238 112.857 149.238Z" fill="#70D14E"/>
<path fill-rule="evenodd" clip-rule="evenodd" d="M33.2988 148.52C34.9413 148.52 36.2729 147.235 36.2729 145.65C36.2729 144.065 34.9413 142.78 33.2988 142.78C31.6562 142.78 30.3246 144.065 30.3246 145.65C30.3246 147.235 31.6562 148.52 33.2988 148.52ZM33.2988 149.238C35.352 149.238 37.0164 147.632 37.0164 145.65C37.0164 143.669 35.352 142.062 33.2988 142.062C31.2455 142.062 29.5811 143.669 29.5811 145.65C29.5811 147.632 31.2455 149.238 33.2988 149.238Z" fill="#70D14E"/>
<path fill-rule="evenodd" clip-rule="evenodd" d="M133.766 159.282C135.408 159.282 136.74 157.997 136.74 156.412C136.74 154.827 135.408 153.542 133.766 153.542C132.123 153.542 130.791 154.827 130.791 156.412C130.791 157.997 132.123 159.282 133.766 159.282ZM133.766 160C135.819 160 137.483 158.393 137.483 156.412C137.483 154.43 135.819 152.824 133.766 152.824C131.712 152.824 130.048 154.43 130.048 156.412C130.048 158.393 131.712 160 133.766 160Z" fill="#70D14E"/>
<ellipse cx="63.0402" cy="137.039" rx="2.23061" ry="2.15261" fill="#70D14E"/>
<ellipse cx="20.2621" cy="63.7543" rx="4.85779" ry="4.68788" fill="#70D14E"/>
<ellipse cx="113.533" cy="4.68788" rx="4.85779" ry="4.68788" fill="#70D14E"/>
<ellipse cx="25.1195" cy="102.196" rx="4.85779" ry="4.68788" fill="#70D14E"/>
<ellipse cx="54.266" cy="8.43788" rx="4.85779" ry="4.68788" fill="#70D14E"/>
<ellipse cx="143.65" cy="4.68788" rx="4.85779" ry="4.68788" fill="#70D14E"/>
<ellipse cx="177.654" cy="30.9398" rx="4.85779" ry="4.68788" fill="#70D14E"/>
<ellipse cx="195.142" cy="80.6332" rx="4.85779" ry="4.68788" fill="#70D14E"/>
<ellipse cx="175.711" cy="119.073" rx="4.85779" ry="4.68788" fill="#70D14E"/>
<path fill-rule="evenodd" clip-rule="evenodd" d="M36.1789 41.2488L30.6023 44.3558L36.1789 47.4628L36.1789 41.2488ZM35.4354 42.4916L32.0894 44.3558L35.4354 46.22L35.4354 42.4916Z" fill="#70D14E"/>
<path fill-rule="evenodd" clip-rule="evenodd" d="M3.48553 60.45L3.87176 66.6528L9.24516 63.2287L3.48553 60.45ZM4.30498 61.6475L4.53671 65.3692L7.76076 63.3147L4.30498 61.6475Z" fill="#70D14E"/>
<path fill-rule="evenodd" clip-rule="evenodd" d="M162.531 110.222L156.284 108.714L158.055 114.689L162.531 110.222ZM161.101 110.616L157.353 109.712L158.416 113.297L161.101 110.616Z" fill="#70D14E"/>
<path fill-rule="evenodd" clip-rule="evenodd" d="M193.369 104.822L195.558 98.9777L189.219 100.07L193.369 104.822ZM193.107 103.409L194.421 99.9025L190.617 100.558L193.107 103.409Z" fill="#70D14E"/>
<path fill-rule="evenodd" clip-rule="evenodd" d="M96.4617 152.061L90.2147 150.554L91.9857 156.529L96.4617 152.061ZM95.032 152.456L91.2838 151.552L92.3464 155.136L95.032 152.456Z" fill="#70D14E"/>
<path fill-rule="evenodd" clip-rule="evenodd" d="M158.775 133.257L157.504 127.166L152.672 131.274L158.775 133.257ZM157.792 132.181L157.029 128.526L154.13 130.991L157.792 132.181Z" fill="#70D14E"/>
<path fill-rule="evenodd" clip-rule="evenodd" d="M142.868 35.269L148.404 32.0956L142.788 29.0554L142.868 35.269ZM143.595 34.0174L146.917 32.1134L143.548 30.2893L143.595 34.0174Z" fill="#70D14E"/>
<path fill-rule="evenodd" clip-rule="evenodd" d="M43.9459 132.324L47.3922 137.573L50.3796 132.068L43.9459 132.324ZM45.2632 132.99L47.331 136.139L49.1235 132.836L45.2632 132.99Z" fill="#70D14E"/>
<path fill-rule="evenodd" clip-rule="evenodd" d="M161.424 71.3335L164.871 76.5827L167.858 71.0779L161.424 71.3335ZM162.742 71.9993L164.81 75.1488L166.602 71.846L162.742 71.9993Z" fill="#70D14E"/>
<path fill-rule="evenodd" clip-rule="evenodd" d="M188.529 56.5212L194.84 55.2865L190.577 50.6297L188.529 56.5212ZM189.644 55.571L193.43 54.8302L190.872 52.0361L189.644 55.571Z" fill="#70D14E"/>
<path fill-rule="evenodd" clip-rule="evenodd" d="M92.4676 7.90187L97.6675 15.8217L102.175 7.51611L92.4676 7.90187ZM94.4553 8.90642L97.5752 13.6583L100.28 8.67497L94.4553 8.90642Z" fill="#70D14E"/>
<path fill-rule="evenodd" clip-rule="evenodd" d="M79.7753 144.537L78.7883 148.141L82.5167 147.164L79.7753 144.537ZM80.1652 145.922L79.8362 147.123L81.079 146.797L80.1652 145.922Z" fill="#70D14E"/>
<path d="M173.462 90.7182L172.953 98.8229L165.934 94.3449L173.462 90.7182Z" fill="#70D14E"/>
<path d="M177.654 62.8164L181.861 69.8482H173.447L177.654 62.8164Z" fill="#70D14E"/>
<path d="M9.14523 102.856L9.0308 110.975L1.802 106.82L9.14523 102.856Z" fill="#70D14E"/>
<path d="M15.8071 125.443L23.9868 123.541L21.6044 131.328L15.8071 125.443Z" fill="#70D14E"/>
</svg>
